<?xml version="1.0" encoding="iso-8859-1"?>
<!-- Generator: Adobe Illustrator 18.0.0, SVG Export Plug-In . SVG Version: 6.00 Build 0)  -->
<!DOCTYPE svg PUBLIC "-//W3C//DTD SVG 1.1//EN" "http://www.w3.org/Graphics/SVG/1.1/DTD/svg11.dtd">
<svg version="1.1" id="Capa_1" xmlns="http://www.w3.org/2000/svg" xmlns:xlink="http://www.w3.org/1999/xlink" x="0px" y="0px"
	 viewBox="0 0 395 395" style="enable-background:new 0 0 395 395;" xml:space="preserve">
<g>
	<path d="M313.001,0H81.999C36.785,0,0,36.784,0,81.998v230.993C0,358.211,36.785,395,81.999,395h231.002
		C358.216,395,395,358.211,395,312.991V81.998C395,36.784,358.216,0,313.001,0z M380,312.991C380,349.94,349.945,380,313.001,380
		H81.999C45.056,380,15,349.94,15,312.991V81.998C15,45.055,45.056,15,81.999,15h231.002C349.945,15,380,45.055,380,81.998V312.991z
		"/>
	<path d="M334.037,189.216l-13.475-43.184c0,0,5.152-22.627-4.842-19.082c-9.994,3.545-12.904,7.477-12.904,7.477
		s-23.615-4.727-37.264,7.266c-3.333,2.339-10.886,9.746-19.172,18.249c-4.657-9.326-7.272-17.425-8.223-20.639
		c3.976-2.506,6.058-7.381,4.805-12.169c-1.548-5.916-7.598-9.458-13.516-7.91l-29.887,7.82l-34.812-11.139
		c-4.221-1.418-8.855-1.792-13.536-0.858c-14.276,2.853-23.538,16.738-20.685,31.015l9.441,47.252l-36.026-0.044
		c-13.55,0-25.941-0.02-35.734,8.729c-5.621,5.022-8.137,12.482-8.137,21.474v36.075c0,6.271,5.088,11.359,11.359,11.359
		c6.275,0,11.359-5.088,11.359-11.359v-36.075c0-1.48,0.168-4.12,1.271-5.194c1.152-1.128,3.223-1.732,6.063-2.059l-0.059,115.309
		c0,8.156,6.609,14.771,14.771,14.771c8.156,0,14.768-6.614,14.768-14.771v-64.876l1.225,0.003l14.791,32.498v32.375
		c0,8.156,6.615,14.771,14.77,14.771c8.154,0,14.771-6.614,14.771-14.771v-35.577c0-2.11-0.455-4.192-1.324-6.116l-10.525-23.125
		l66.955,0.113v64.981c0,8.157,6.609,14.769,14.764,14.769c8.164,0,14.775-6.611,14.775-14.769v-73.75l27.612-55.89
		c7.331,3.478,15.127,5.221,23.336,5.221c4.633,0,9.4-0.568,14.284-1.678c3.351,1.909,7.521,2.36,11.401,0.824
		C333.293,203.866,336.666,196.042,334.037,189.216z M214.82,193.407l-21.083-0.026c-0.019-0.102-0.033-0.204-0.053-0.306
		l-9.532-47.708l11.724,3.751c1.096,0.351,2.235,0.576,3.375,0.576c0.941,0,1.883-0.17,2.803-0.41l30.433-7.963
		c1.154,3.933,4.114,13.02,9.423,23.24C228.507,178.49,214.82,193.407,214.82,193.407z M280.077,196.779l10.298-19.279l19.31,23.13
		C299.057,202.329,289.14,201.047,280.077,196.779z"/>
	<path d="M163.445,102.847c13.533-9.476,16.83-28.128,7.354-41.66c-9.473-13.535-28.135-16.823-41.67-7.348
		c-13.529,9.473-16.824,28.134-7.348,41.668C131.258,109.04,149.91,112.318,163.445,102.847z"/>
</g>
<g>
</g>
<g>
</g>
<g>
</g>
<g>
</g>
<g>
</g>
<g>
</g>
<g>
</g>
<g>
</g>
<g>
</g>
<g>
</g>
<g>
</g>
<g>
</g>
<g>
</g>
<g>
</g>
<g>
</g>
</svg>
