<?xml version="1.0" standalone="no"?>
<!DOCTYPE svg PUBLIC "-//W3C//DTD SVG 20010904//EN"
 "http://www.w3.org/TR/2001/REC-SVG-20010904/DTD/svg10.dtd">
<svg version="1.0" xmlns="http://www.w3.org/2000/svg"
 width="3840.000000pt" height="2160.000000pt" viewBox="0 0 3840.000000 2160.000000"
 preserveAspectRatio="xMidYMid meet">
<metadata>
Created by potrace 1.15, written by Peter Selinger 2001-2017
</metadata>
<g transform="translate(0.000000,2160.000000) scale(0.100000,-0.100000)"
fill="#000000" stroke="none">
<path d="M17513 14840 c-23 -5 -55 -16 -72 -24 -34 -18 -42 -40 -184 -526 -78
-265 -133 -426 -148 -435 -13 -8 -31 32 -169 376 -71 175 -150 359 -177 411
-42 82 -53 96 -93 116 -48 24 -137 29 -292 16 l-76 -7 168 -416 c289 -717 454
-1090 509 -1153 47 -54 79 -60 240 -42 75 9 140 19 144 23 13 12 487 1526 487
1555 0 8 -15 17 -35 20 -27 5 -38 14 -49 40 -11 27 -22 35 -59 45 -52 12 -131
13 -194 1z"/>
<path d="M17941 14523 c1 -610 16 -1204 30 -1248 24 -69 15 -69 677 -73 l582
-4 0 116 c0 103 -2 118 -20 136 -11 11 -27 20 -35 20 -8 0 -21 15 -29 34 -11
26 -21 35 -47 39 -19 3 -193 9 -386 13 l-353 7 0 142 0 143 133 6 c72 3 244 8
382 11 137 4 251 8 252 9 7 7 15 226 9 249 -4 18 -15 27 -37 32 -22 5 -34 15
-41 35 -6 20 -20 32 -41 39 -18 6 -173 13 -344 17 l-313 7 0 97 0 98 143 6
c78 3 263 8 412 11 148 4 271 8 273 9 6 7 14 226 8 249 -4 18 -15 27 -37 32
-22 5 -34 15 -41 35 -5 16 -17 32 -26 36 -20 8 -547 22 -904 23 l-248 1 1
-327z"/>
<path d="M19412 14729 c-39 -408 -66 -1342 -42 -1431 14 -48 55 -97 97 -114
21 -9 73 -14 151 -14 l119 0 12 103 c7 56 16 219 21 362 11 303 17 368 33 363
18 -6 87 -115 199 -313 223 -397 285 -487 361 -524 36 -18 62 -21 156 -21 62
0 121 4 131 10 26 14 38 83 50 285 17 302 32 845 28 1048 -3 181 -5 200 -22
212 -10 8 -24 24 -30 37 -16 32 -96 59 -196 65 -63 4 -89 1 -102 -9 -22 -17
-34 -111 -53 -423 -17 -282 -24 -371 -35 -400 -6 -17 -14 -9 -52 50 -25 39
-94 156 -153 260 -214 376 -307 512 -375 546 -25 13 -71 20 -161 25 l-125 7
-12 -124z"/>
<path d="M15821 14739 l-24 -9 7 -131 c3 -72 18 -259 32 -416 14 -157 24 -301
22 -319 l-3 -34 -86 107 c-48 60 -153 196 -234 303 -230 302 -286 370 -325
390 -80 41 -281 46 -326 9 -24 -20 -15 -166 46 -819 49 -515 69 -651 111 -738
32 -65 61 -75 193 -70 150 6 156 10 156 101 0 40 -9 167 -20 282 -11 116 -23
272 -27 349 l-6 138 21 -11 c29 -15 130 -138 294 -356 168 -223 294 -373 338
-402 38 -26 97 -30 213 -12 106 16 117 26 117 103 0 63 -57 748 -85 1026 -37
362 -69 476 -140 506 -40 16 -235 19 -274 3z"/>
<path d="M21058 14743 c-43 -5 -36 28 -73 -348 -49 -504 -56 -795 -22 -921 36
-136 265 -356 432 -415 160 -56 451 -44 603 26 61 28 166 124 193 177 63 123
169 947 157 1222 l-3 79 -35 12 c-27 9 -35 17 -35 36 0 35 -48 48 -185 48
-143 1 -160 -7 -160 -78 0 -107 -94 -975 -112 -1030 -6 -18 -26 -51 -45 -72
-48 -53 -116 -73 -233 -67 -101 5 -134 20 -157 76 -23 54 -12 297 32 754 l37
377 -38 33 c-63 55 -97 78 -134 88 -34 10 -145 11 -222 3z"/>
<path d="M14215 14564 c-217 -35 -753 -129 -815 -142 -34 -8 -35 -10 -32 -48
9 -110 120 -822 178 -1139 55 -297 77 -375 109 -375 8 0 21 -16 29 -35 12 -29
20 -35 44 -35 16 0 139 18 273 41 134 22 383 62 553 89 170 27 310 51 313 53
9 10 -20 185 -38 227 -11 26 -42 68 -68 94 l-48 48 -249 -41 c-369 -60 -484
-75 -494 -65 -7 7 -30 200 -30 255 0 12 23 20 103 33 367 63 592 110 615 128
26 22 4 175 -34 236 -8 13 -26 27 -39 32 -14 5 -26 20 -30 39 -3 16 -13 32
-21 35 -12 5 -118 -11 -620 -92 l-51 -9 -12 50 c-17 75 -14 111 12 135 31 29
133 54 352 87 213 32 371 62 398 77 18 9 19 18 15 92 -6 95 -35 172 -69 185
-13 4 -28 22 -34 42 -11 31 -15 34 -56 36 -24 1 -138 -14 -254 -33z"/>
<path d="M22544 14558 c-14 -30 -19 -65 -19 -123 0 -74 3 -85 28 -118 39 -51
108 -83 240 -113 61 -13 116 -29 121 -34 12 -12 -13 -211 -85 -660 -27 -173
-52 -359 -56 -412 l-6 -97 39 -39 c44 -44 146 -83 272 -104 61 -10 75 -10 82
2 11 18 36 152 120 650 38 223 77 443 87 490 l18 85 37 3 c21 2 106 -6 188
-18 229 -32 244 -24 238 137 -2 79 -7 103 -23 125 -43 57 -156 95 -445 147
-271 48 -736 121 -778 121 -36 0 -40 -3 -58 -42z"/>
<path d="M12460 14191 c-139 -30 -272 -68 -512 -147 -209 -69 -228 -77 -228
-98 0 -74 290 -1004 422 -1354 54 -142 92 -192 145 -192 29 0 412 116 633 192
350 120 444 213 457 449 11 195 -35 288 -209 421 -48 36 -80 68 -84 83 -3 14
2 57 11 96 39 157 -1 274 -139 413 -114 115 -184 149 -315 153 -65 2 -123 -3
-181 -16z m216 -379 c20 -13 35 -51 28 -76 -9 -37 -81 -98 -154 -133 -92 -42
-270 -107 -276 -100 -12 11 -54 138 -54 161 0 26 32 58 75 75 55 21 299 80
335 80 19 1 40 -3 46 -7z m223 -576 c60 -31 77 -93 41 -151 -25 -41 -67 -73
-146 -113 -66 -34 -263 -102 -293 -102 -30 0 -55 40 -81 126 -39 131 -31 138
235 208 191 50 205 52 244 32z"/>
<path d="M24345 14195 c-281 -62 -456 -251 -559 -606 -68 -237 -48 -429 66
-624 212 -361 684 -547 1037 -408 296 117 491 471 491 892 0 106 -17 169 -77
281 -130 243 -351 407 -627 464 -93 19 -247 20 -331 1z m450 -399 c58 -27 132
-97 143 -135 16 -57 6 -263 -17 -350 -54 -202 -149 -329 -287 -381 -181 -67
-349 -13 -415 133 -21 46 -24 66 -23 172 1 103 5 132 29 205 87 268 213 379
430 380 74 0 99 -4 140 -24z"/>
</g>
</svg>
