<?xml version="1.0" encoding="iso-8859-1"?>
<!-- Generator: Adobe Illustrator 16.0.0, SVG Export Plug-In . SVG Version: 6.00 Build 0)  -->
<!DOCTYPE svg PUBLIC "-//W3C//DTD SVG 1.1//EN" "http://www.w3.org/Graphics/SVG/1.1/DTD/svg11.dtd">
<svg version="1.1" id="Capa_1" xmlns="http://www.w3.org/2000/svg" xmlns:xlink="http://www.w3.org/1999/xlink" x="0px" y="0px"
	 width="32.906px" height="32.906px" viewBox="0 0 32.906 32.906" style="enable-background:new 0 0 32.906 32.906;"
	 xml:space="preserve">
<g>
	<path d="M22.934,11.345c3.538,0.755,3.16,5.048,3.16,5.048l-0.52,3.351l-0.33,0.896v3.021l0.144,1.132l-0.284,1.462l-0.188,3.68
		l-0.426,1.792h-1.414l0.094-1.367l0.566-0.425l0.377-3.396l-0.33-2.5c0,0-2.265,1.321-2.265,3.208
		c-0.427-0.125-0.942-1.085-0.942-1.085l0.018,0.646l-1.104,0.957c0,0-0.699-0.297-0.803-0.896c-0.102-0.6-0.445-2.109,0.049-2.689
		s1.367-1.604,1.367-1.604l0.002-0.904c0,0-0.663-0.134-1.087-0.7c-0.66,0.566-2.548,0.236-2.548,0.236s-2.123,3.067-2.359,3.491
		c-0.235,0.425,0.189,4.718,0.189,4.718l0.802,1.463l-1.51,1.179l-0.424-1.273l-0.425,0.188l-0.095,1.936h-1.651l0.189-1.181
		l0.66-0.942l-0.093-7.124c0,0-0.99-1.559-0.99-2.076s0-1.462,0-1.462s-0.802-0.85-0.802-1.321s0-1.273,0-1.273
		s-1.132,0.299-1.084-0.487c0.046-0.788-1.04-2.344-1.04-3.051s0-3.585,0-3.585L6.801,8.422c0,0,1.089,0.051,1.368,0.377
		c0.279,0.327,0.566,0.661,0.566,0.661s1.037-2.076,1.51-2.736c0.472-0.66,1.934-0.613,2.641-0.425
		c0.708,0.189,1.463,1.193,1.463,1.193l0.661-0.815c0,0,0.022-2.367,0.329-2.5c0.309-0.133,1.416-0.613,1.416-0.613l0.047-1.368
		c0,0-1.557-0.094-1.604-0.519c-0.047-0.424,1.557-0.896,1.557-0.896s-0.095-0.142-0.048-0.519c0.048-0.378,2.077-0.236,2.077-0.236
		v0.755c0,0,1.558-0.236,1.604,0.283c0.048,0.519-1.557,0.849-1.557,0.849l0.047,1.18c0,0,2.17,1.415,2.406,1.651
		c0.235,0.236,0.33,3.963,0.235,4.34c-0.094,0.377-1.604,0.142-1.604,0.142l0.709,1.746C20.623,10.968,21.805,11.104,22.934,11.345z
		"/>
</g>
<g>
</g>
<g>
</g>
<g>
</g>
<g>
</g>
<g>
</g>
<g>
</g>
<g>
</g>
<g>
</g>
<g>
</g>
<g>
</g>
<g>
</g>
<g>
</g>
<g>
</g>
<g>
</g>
<g>
</g>
</svg>
