<svg height="464pt" viewBox="0 -5 464 464" width="464pt" xmlns="http://www.w3.org/2000/svg"><path d="m421.097656 86.710938-4.832031-6.78125 44.796875-29.289063-31.648438-50.640625-59.0625 36.054688c-11.320312 6.914062-18.351562 19.433593-18.351562 32.6875 0 6.65625 1.742188 13.226562 5.046875 19.011718l16.839844 29.46875c22.3125 30.441406 34.113281 66.335938 34.113281 103.824219 0 97.050781-78.953125 176-176 176s-176-78.949219-176-176c0-37.496094 11.800781-73.382813 34.113281-103.832031l16.839844-29.472656c3.304687-5.765626 5.046875-12.34375 5.046875-19 0-13.253907-7.03125-25.78125-18.34375-32.6875l-59.070312-36.054688-31.648438 50.640625 44.796875 29.289063-4.832031 6.78125c-28.070313 39.449218-42.902344 85.90625-42.902344 134.335937 0 127.921875 104.078125 232 232 232s232-104.078125 232-232c0-48.429687-14.832031-94.886719-42.902344-134.335937zm-368.28125 28.722656 13.785156 8.140625c-4.96875 8.410156-9.335937 17.28125-12.976562 26.378906l-14.855469-5.953125c3.933594-9.847656 8.671875-19.464844 14.046875-28.566406zm-25.183594 66.773437 15.71875 2.984375c-1.816406 9.5625-2.894531 19.394532-3.230468 29.199219l-15.984375-.542969c.359375-10.625 1.535156-21.273437 3.496093-31.640625zm6.238282 102.328125c-3.230469-10.085937-5.703125-20.511718-7.351563-30.992187l15.816407-2.488281c1.511718 9.671874 3.800781 19.296874 6.777343 28.601562zm33.136718 63.183594c-6.480468-8.429688-12.335937-17.398438-17.414062-26.648438l14.015625-7.703124c4.695313 8.535156 10.109375 16.824218 16.085937 24.601562zm372.871094-133.664062-15.984375.539062c-.328125-9.824219-1.40625-19.648438-3.207031-29.21875l15.71875-2.96875c1.960938 10.371094 3.121094 21.019531 3.472656 31.648438zm-42.367187-90.3125 13.785156-8.125c5.390625 9.144531 10.109375 18.757812 14.023437 28.582031l-14.855468 5.921875c-3.625-9.066406-7.96875-17.9375-12.953125-26.378906zm-.664063 224.144531-12.671875-9.765625c5.984375-7.769532 11.410157-16.03125 16.113281-24.578125l14.015626 7.722656c-5.105469 9.253906-10.96875 18.214844-17.457032 26.621094zm33.222656-63.152344-15.230468-4.886719c2.992187-9.296875 5.273437-18.910156 6.808594-28.574218l15.800781 2.496093c-1.65625 10.46875-4.136719 20.886719-7.378907 30.964844zm0 0"/><path d="m144 221.046875c0 48.519531 39.480469 88 88 88s88-39.480469 88-88-39.480469-88-88-88-88 39.480469-88 88zm88 8c-17.648438 0-32-14.351563-32-32 0-14.871094 10.230469-27.285156 24-30.863281v-17.136719h16v17.136719c13.769531 3.578125 24 15.992187 24 30.863281h-16c0-8.824219-7.175781-16-16-16s-16 7.175781-16 16 7.175781 16 16 16c17.648438 0 32 14.351563 32 32 0 14.875-10.230469 27.289063-24 30.863281v17.136719h-16v-17.136719c-13.769531-3.574218-24-15.988281-24-30.863281h16c0 8.824219 7.175781 16 16 16s16-7.175781 16-16-7.175781-16-16-16zm0 0"/><path d="m335.59375 213.046875h16c-3.96875-59.78125-51.808594-107.621094-111.59375-111.589844v16c50.960938 3.902344 91.6875 44.632813 95.59375 95.589844zm0 0"/><path d="m240 324.648438v16c59.785156-3.96875 107.625-51.808594 111.59375-111.59375h-16c-3.90625 50.953124-44.632812 91.679687-95.59375 95.59375zm0 0"/><path d="m224 117.457031v-16c-59.785156 3.96875-107.625 51.808594-111.59375 111.589844h16c3.90625-50.957031 44.632812-91.6875 95.59375-95.589844zm0 0"/><path d="m224 340.648438v-16c-50.960938-3.90625-91.6875-44.632813-95.59375-95.59375h-16c3.96875 59.777343 51.808594 107.617187 111.59375 111.59375zm0 0"/></svg>