<?xml version="1.0" encoding="iso-8859-1"?>
<!-- Generator: Adobe Illustrator 16.0.0, SVG Export Plug-In . SVG Version: 6.00 Build 0)  -->
<!DOCTYPE svg PUBLIC "-//W3C//DTD SVG 1.1//EN" "http://www.w3.org/Graphics/SVG/1.1/DTD/svg11.dtd">
<svg version="1.1" id="Capa_1" xmlns="http://www.w3.org/2000/svg" xmlns:xlink="http://www.w3.org/1999/xlink" x="0px" y="0px"
	 width="27.175px" height="27.175px" viewBox="0 0 27.175 27.175" style="enable-background:new 0 0 27.175 27.175;"
	 xml:space="preserve">
<g>
	<g>
		<path d="M26.414,11.18c-0.011-0.194-0.021-0.385-0.031-0.575c-0.099-1.44-0.279-2.692-0.485-3.82
			c-0.204-1.124-0.433-2.104-0.67-2.929c-0.238-0.828-0.481-1.484-0.708-1.972c-0.096-0.231-0.214-0.437-0.278-0.563
			c-0.068-0.129-0.104-0.196-0.104-0.196c-0.499-0.939-1.633-1.375-2.647-0.978c-1.092,0.427-1.63,1.659-1.203,2.751l0.103,0.26
			c0,0,0.013,0.032,0.037,0.094c0.023,0.068,0.063,0.136,0.112,0.293c0.105,0.268,0.236,0.765,0.391,1.425
			c0.148,0.665,0.298,1.518,0.419,2.513c0.121,0.991,0.215,2.145,0.252,3.34c0.002,0.14,0.004,0.281,0.007,0.424
			c-0.001,0.157-0.002,0.316-0.004,0.476c-0.021,0.291-0.039,0.587-0.06,0.888l-0.015,0.227l-0.034,0.226
			c-0.021,0.151-0.043,0.304-0.064,0.456c-0.025,0.153-0.036,0.31-0.07,0.462c-0.035,0.152-0.071,0.307-0.105,0.46
			c-0.28,1.234-0.766,2.481-1.46,3.616c-0.694,1.133-1.622,2.135-2.689,2.854c-0.548,0.322-1.105,0.642-1.704,0.8l-0.221,0.071
			l-0.11,0.036c-0.035,0.011-0.061,0.011-0.092,0.017c-0.119,0.018-0.236,0.042-0.353,0.071l-0.088,0.022l-0.044,0.012l-0.081,0.005
			l-0.329,0.02l-0.529,0.031h0.003l0.014,0.001c-0.067,0.003,0.171-0.004-0.147,0.006l0.13-0.008l-0.026-0.002l-0.057-0.006
			l-0.115-0.008l-0.23-0.014c-0.153-0.008-0.308-0.006-0.457-0.047c-0.151-0.03-0.302-0.058-0.453-0.082
			c-0.153-0.018-0.296-0.09-0.445-0.129c-0.599-0.158-1.156-0.478-1.704-0.8C9,20.188,8.072,19.187,7.378,18.054
			c-0.695-1.134-1.179-2.381-1.46-3.616c-0.036-0.153-0.071-0.308-0.106-0.46c-0.034-0.151-0.042-0.284-0.066-0.425
			c-0.021-0.139-0.042-0.277-0.063-0.414l-0.034-0.205l-0.015-0.265c-0.022-0.348-0.043-0.69-0.064-1.026v0.022v0.028v0.014
			c-0.001-0.039,0.002,0.108-0.002-0.085c0,0.007,0.001,0.014,0.001,0.02v-0.034l-0.001-0.111l-0.002-0.221
			c0.002-0.152,0.005-0.302,0.007-0.45c0.038-1.204,0.132-2.352,0.253-3.345c0.121-0.996,0.27-1.848,0.419-2.513
			c0.036-0.169,0.073-0.324,0.111-0.464C6.393,4.364,6.422,4.223,6.458,4.11c0.034-0.117,0.065-0.226,0.093-0.325
			c0.022-0.069,0.042-0.132,0.06-0.188c0.008-0.029,0.016-0.056,0.023-0.081C6.641,3.493,6.667,3.44,6.68,3.409
			c0.032-0.072,0.058-0.133,0.08-0.181C6.802,3.129,6.824,3.08,6.824,3.08l0.008-0.019C7.273,2.052,6.871,0.858,5.885,0.33
			C4.846-0.227,3.553,0.164,2.996,1.202c0,0-0.026,0.048-0.076,0.142C2.895,1.391,2.864,1.45,2.826,1.519
			c-0.02,0.039-0.035,0.062-0.063,0.122C2.736,1.7,2.708,1.764,2.677,1.83C2.618,1.964,2.553,2.116,2.48,2.282
			c-0.053,0.141-0.112,0.294-0.175,0.46C2.185,3.07,2.059,3.445,1.946,3.855C1.709,4.681,1.48,5.661,1.276,6.785
			C1.071,7.91,0.889,9.168,0.792,10.6c-0.011,0.181-0.021,0.364-0.032,0.549l-0.01,0.286l-0.005,0.144L0.743,11.65l-0.001,0.036
			l-0.001,0.018c0.001,0.05-0.003-0.087,0.002,0.117c0.007,0.343,0.014,0.693,0.021,1.048l0.006,0.268l0.032,0.331
			c0.023,0.222,0.047,0.446,0.071,0.671c0.028,0.222,0.045,0.46,0.085,0.674c0.041,0.213,0.082,0.428,0.124,0.643
			c0.337,1.721,0.951,3.514,1.955,5.208c1,1.687,2.372,3.308,4.183,4.527c0.924,0.579,1.908,1.119,3.001,1.439
			c0.272,0.079,0.535,0.187,0.817,0.235l0.841,0.161c0.28,0.063,0.565,0.077,0.851,0.098l0.429,0.026l0.214,0.013l0.107,0.006
			l0.054,0.003l0.027,0.001c0.081-0.002-0.143,0.006,0.188-0.004l0.658-0.043l0.33-0.022l0.083-0.006l0.118-0.018l0.236-0.038
			c0.314-0.052,0.63-0.11,0.941-0.173c0.076-0.017,0.16-0.03,0.23-0.051l0.203-0.062l0.405-0.128
			c1.094-0.32,2.077-0.859,3.001-1.439c1.812-1.22,3.183-2.841,4.184-4.527c1.004-1.694,1.618-3.487,1.955-5.208
			c0.041-0.217,0.083-0.431,0.124-0.643c0.039-0.213,0.053-0.427,0.08-0.637c0.022-0.211,0.046-0.421,0.068-0.628l0.032-0.311
			l0.009-0.309c0.009-0.409,0.019-0.812,0.026-1.207C26.426,11.54,26.42,11.358,26.414,11.18z M2.763,10.693
			c0.066-1.274,0.203-2.431,0.364-3.464l0.76,0.439c-0.125,0.93-0.227,1.955-0.285,3.065c-0.006,0.162-0.012,0.326-0.018,0.491
			c-0.002,0.133-0.004,0.269-0.005,0.404H2.736C2.739,11.292,2.749,11.001,2.763,10.693z M3.082,15.038
			c-0.039-0.19-0.078-0.379-0.117-0.568c-0.038-0.188-0.051-0.382-0.077-0.571c-0.023-0.189-0.046-0.378-0.068-0.564L2.798,13.15
			h0.853l0.016,0.126c0.022,0.173,0.044,0.346,0.066,0.521c0.025,0.175,0.037,0.351,0.073,0.528
			c0.037,0.177,0.075,0.356,0.113,0.535c0.134,0.636,0.317,1.278,0.547,1.915l-0.76,0.439C3.438,16.49,3.231,15.758,3.082,15.038z
			 M6.992,22.29c-0.857-0.812-1.579-1.735-2.159-2.704c-0.189-0.316-0.361-0.638-0.521-0.962l0.754-0.436
			c0.158,0.32,0.329,0.637,0.516,0.947c0.511,0.847,1.135,1.655,1.864,2.367L6.992,22.29z M13.558,24.131l0.022-0.001
			C13.579,24.13,13.575,24.13,13.558,24.131z M22.34,19.585c-0.58,0.969-1.303,1.893-2.159,2.704l-0.455-0.787
			c0.729-0.712,1.353-1.52,1.864-2.367c0.187-0.31,0.357-0.627,0.516-0.947l0.754,0.436C22.701,18.949,22.529,19.269,22.34,19.585z
			 M24.092,15.038c-0.149,0.721-0.357,1.452-0.624,2.179l-0.761-0.439c0.23-0.638,0.413-1.279,0.548-1.915
			c0.119-0.579,0.206-1.15,0.261-1.71h0.852C24.311,13.769,24.222,14.399,24.092,15.038z M23.594,11.628
			c0.001-0.303-0.006-0.602-0.023-0.896c-0.058-1.109-0.16-2.134-0.285-3.064l0.761-0.439c0.16,1.033,0.298,2.189,0.363,3.464
			c0.019,0.304,0.027,0.616,0.027,0.934L23.594,11.628L23.594,11.628z"/>
		<path d="M13.572,21.998l-0.014-0.001h-0.003l-0.13,0.008C13.743,21.994,13.505,22,13.572,21.998z"/>
		<path d="M5.57,11.708v-0.014v-0.028v-0.022c0-0.007-0.001-0.014-0.001-0.02C5.572,11.815,5.57,11.668,5.57,11.708z"/>
		<path d="M13.58,24.13l-0.022,0.001C13.575,24.13,13.579,24.13,13.58,24.13z"/>
	</g>
</g>
<g>
</g>
<g>
</g>
<g>
</g>
<g>
</g>
<g>
</g>
<g>
</g>
<g>
</g>
<g>
</g>
<g>
</g>
<g>
</g>
<g>
</g>
<g>
</g>
<g>
</g>
<g>
</g>
<g>
</g>
</svg>
