<!DOCTYPE svg PUBLIC "-//W3C//DTD SVG 20010904//EN" "http://www.w3.org/TR/2001/REC-SVG-20010904/DTD/svg10.dtd">
<svg version="1.0" xmlns="http://www.w3.org/2000/svg" width="194px" height="194px" viewBox="0 0 1940 1940" preserveAspectRatio="xMidYMid meet">
<g id="layer101" fill="#010101" stroke="none">
 <path d="M0 970 l0 -970 970 0 970 0 0 970 0 970 -970 0 -970 0 0 -970z"/>
 </g>
<g id="layer102" fill="#464646" stroke="none">
 <path d="M0 970 l0 -970 970 0 970 0 0 970 0 970 -970 0 -970 0 0 -970z m673 868 c-31 -15 -33 -78 -4 -78 11 0 27 10 35 22 16 22 16 21 16 -22 -1 -36 -3 -41 -11 -27 -5 9 -21 17 -36 17 -23 0 -25 -3 -21 -40 l4 -40 -41 1 c-22 0 -34 3 -27 6 8 3 12 29 12 78 0 60 -3 76 -17 84 -14 8 -2 10 47 10 54 0 61 -2 43 -11z m97 -8 c0 -21 -24 -28 -35 -10 -8 14 3 30 21 30 8 0 14 -9 14 -20z m170 0 c0 -11 -7 -20 -15 -20 -15 0 -21 21 -8 33 12 13 23 7 23 -13z m70 6 c0 -2 -11 -13 -25 -26 l-25 -23 0 30 c0 27 3 30 25 25 14 -2 25 -5 25 -6z m37 7 c-4 -3 -10 -3 -14 0 -3 4 0 7 7 7 7 0 10 -3 7 -7z m121 -16 c2 -10 -3 -17 -12 -17 -18 0 -29 16 -21 31 9 14 29 6 33 -14z m250 1 c5 -24 -54 -29 -75 -6 -15 17 -15 18 5 18 12 0 22 -6 22 -12 0 -7 5 -5 11 5 12 21 33 18 37 -5z m-556 -63 c-4 -71 -3 -75 19 -84 20 -8 16 -10 -26 -10 l-50 -1 3 85 c3 85 4 85 30 85 l27 0 -3 -75z m258 51 c19 -37 6 -55 -61 -84 -47 -20 -59 -30 -56 -44 3 -10 2 -18 -1 -18 -15 1 -42 28 -42 42 0 22 42 57 78 64 41 8 59 29 42 49 -10 12 -9 15 7 15 11 0 25 -11 33 -24z m140 -16 c0 -46 18 -53 43 -17 16 21 16 21 16 -22 1 -42 0 -43 -17 -28 -32 29 -45 21 -40 -23 4 -40 3 -40 -32 -40 l-35 0 3 85 3 85 30 0 c27 0 29 -2 29 -40z m-490 -105 c0 -22 -4 -25 -37 -24 -24 1 -30 3 -15 6 12 3 28 13 35 24 15 25 17 24 17 -6z m350 -4 c0 -25 -3 -28 -25 -23 l-26 4 23 23 c13 13 24 23 26 24 1 1 2 -12 2 -28z m250 -7 c0 -9 -11 -14 -31 -14 l-31 0 23 19 c25 20 39 19 39 -5z m-317 -21 c-7 -2 -19 -2 -25 0 -7 3 -2 5 12 5 14 0 19 -2 13 -5z"/>
 </g>
<g id="layer103" fill="#29933e" stroke="none">
 <path d="M0 970 l0 -970 970 0 970 0 0 970 0 970 -970 0 -970 0 0 -970z m678 869 c-23 -13 -25 -79 -4 -79 8 0 22 10 30 22 16 22 16 21 16 -22 -1 -40 -2 -43 -14 -27 -23 30 -46 21 -46 -18 0 -34 1 -35 39 -35 30 0 44 6 55 22 l16 22 0 -27 0 -27 -97 0 c-75 0 -94 3 -85 12 7 7 12 40 12 80 0 53 -4 69 -17 77 -14 8 -2 10 47 10 49 0 61 -2 48 -10z m92 -9 c0 -21 -24 -28 -35 -10 -8 14 3 30 21 30 8 0 14 -9 14 -20z m118 13 c-15 -4 -18 -17 -18 -83 0 -66 3 -79 18 -83 9 -3 -5 -5 -33 -6 l-50 -1 3 77 c3 65 1 79 -14 90 -15 11 -9 13 47 12 35 -1 56 -3 47 -6z m119 -7 c2 -1 -8 -13 -22 -26 -21 -20 -25 -21 -25 -7 0 14 -6 16 -25 11 -18 -4 -25 -2 -25 8 0 8 3 17 6 21 5 5 85 -1 91 -7z m110 -14 c25 -33 11 -55 -54 -87 -66 -31 -79 -51 -39 -61 26 -6 81 17 89 38 3 7 6 0 6 -17 1 -29 0 -30 -55 -33 -127 -7 -141 74 -21 118 51 19 54 41 7 58 l-35 13 44 -6 c24 -3 50 -13 58 -23z m51 5 c2 -10 -3 -17 -12 -17 -18 0 -29 16 -21 31 9 14 29 6 33 -14z m202 6 c0 -15 1 -15 13 2 15 19 37 13 37 -11 0 -8 -9 -14 -20 -14 -11 0 -20 -5 -20 -12 0 -6 -11 -1 -24 11 -14 13 -38 24 -58 24 -31 2 -33 0 -36 -35 -4 -44 16 -52 41 -15 15 21 16 20 16 -28 0 -48 -1 -49 -16 -27 -24 34 -43 28 -43 -13 0 -33 2 -35 34 -35 18 0 39 7 46 15 14 17 30 11 30 -11 0 -11 -18 -14 -87 -14 l-88 0 3 75 c2 49 -1 81 -8 91 -11 12 1 14 84 14 83 0 96 -2 96 -17z"/>
 </g>
<g id="layer104" fill="#4d6a50" stroke="none">
 <path d="M0 970 l0 -970 970 0 970 0 0 970 0 970 -970 0 -970 0 0 -970z m678 869 c-23 -13 -25 -79 -4 -79 8 0 22 10 30 22 16 22 16 21 16 -22 -1 -40 -2 -43 -14 -27 -23 30 -46 21 -46 -18 0 -34 1 -35 39 -35 30 0 44 6 55 22 l16 22 0 -27 0 -27 -97 0 c-75 0 -94 3 -85 12 7 7 12 40 12 80 0 53 -4 69 -17 77 -14 8 -2 10 47 10 49 0 61 -2 48 -10z m92 -9 c0 -21 -24 -28 -35 -10 -8 14 3 30 21 30 8 0 14 -9 14 -20z m118 13 c-15 -4 -18 -17 -18 -83 0 -66 3 -79 18 -83 9 -3 -5 -5 -33 -6 l-50 -1 3 77 c3 65 1 79 -14 90 -15 11 -9 13 47 12 35 -1 56 -3 47 -6z m119 -7 c2 -1 -8 -13 -22 -26 -21 -20 -25 -21 -25 -7 0 14 -6 16 -25 11 -18 -4 -25 -2 -25 8 0 8 3 17 6 21 5 5 85 -1 91 -7z m110 -14 c25 -33 11 -55 -54 -87 -66 -31 -79 -51 -39 -61 26 -6 81 17 89 38 3 7 6 0 6 -17 1 -29 0 -30 -55 -33 -127 -7 -141 74 -21 118 51 19 54 41 7 58 l-35 13 44 -6 c24 -3 50 -13 58 -23z m51 5 c2 -10 -3 -17 -12 -17 -18 0 -29 16 -21 31 9 14 29 6 33 -14z m202 6 c0 -15 1 -15 13 2 15 19 37 13 37 -11 0 -8 -9 -14 -20 -14 -11 0 -20 -5 -20 -12 0 -6 -11 -1 -24 11 -14 13 -38 24 -58 24 -31 2 -33 0 -36 -35 -4 -44 16 -52 41 -15 15 21 16 20 16 -28 0 -48 -1 -49 -16 -27 -24 34 -43 28 -43 -13 0 -33 2 -35 34 -35 18 0 39 7 46 15 14 17 30 11 30 -11 0 -11 -18 -14 -87 -14 l-88 0 3 75 c2 49 -1 81 -8 91 -11 12 1 14 84 14 83 0 96 -2 96 -17z m-440 -277 c0 -2 -7 -7 -16 -10 -8 -3 -12 -2 -9 4 6 10 25 14 25 6z m-40 -20 c0 -3 -4 -8 -10 -11 -5 -3 -10 -1 -10 4 0 6 5 11 10 11 6 0 10 -2 10 -4z m28 -153 c-10 -2 -26 -2 -35 0 -10 3 -2 5 17 5 19 0 27 -2 18 -5z"/>
 </g>
<g id="layer105" fill="#1aff00" stroke="none">
 <path d="M0 970 l0 -970 970 0 970 0 0 970 0 970 -970 0 -970 0 0 -970z m678 869 c-12 -6 -18 -22 -18 -44 0 -40 11 -44 40 -15 l20 20 0 -47 c0 -46 -1 -47 -16 -25 -24 34 -44 28 -44 -13 0 -34 1 -35 39 -35 30 0 44 6 55 22 l16 22 0 -27 0 -27 -97 0 c-75 0 -94 3 -85 12 7 7 12 40 12 80 0 53 -4 69 -17 77 -14 8 -2 10 47 10 49 0 61 -2 48 -10z m92 -9 c0 -21 -24 -28 -35 -10 -8 14 3 30 21 30 8 0 14 -9 14 -20z m118 9 c-15 -8 -18 -24 -18 -84 0 -62 3 -74 18 -78 9 -3 -5 -5 -33 -6 l-50 -1 3 77 c3 65 1 79 -14 90 -15 11 -9 13 47 13 48 -1 60 -3 47 -11z m224 -7 c9 -9 14 -8 23 5 13 18 35 10 35 -13 0 -8 -9 -14 -19 -14 -13 0 -21 -8 -23 -22 -3 -20 -60 -58 -123 -81 -15 -6 15 -37 35 -37 10 0 32 12 49 26 l31 26 0 -29 c0 -27 -2 -28 -56 -31 -125 -7 -141 79 -22 117 47 15 57 30 33 48 -29 20 -54 16 -86 -16 -25 -26 -29 -27 -29 -10 0 16 -5 18 -25 13 -20 -5 -25 -2 -25 13 0 19 7 20 95 19 57 -1 99 -6 107 -14z m258 1 c0 -15 1 -15 13 2 15 19 37 13 37 -11 0 -8 -9 -14 -20 -14 -11 0 -20 -5 -20 -12 0 -6 -11 -1 -24 11 -14 13 -38 24 -58 24 -31 2 -33 0 -36 -35 -4 -44 16 -52 41 -15 15 21 16 20 16 -28 0 -48 -1 -49 -16 -27 -24 34 -43 28 -43 -13 0 -33 2 -35 35 -35 24 0 39 6 47 20 17 27 28 25 28 -5 0 -25 -1 -25 -87 -25 l-88 0 3 75 c2 49 -1 81 -8 91 -11 12 1 14 84 14 83 0 96 -2 96 -17z m-440 -277 c0 -2 -7 -7 -16 -10 -8 -3 -12 -2 -9 4 6 10 25 14 25 6z m105 -6 c3 -5 4 -10 1 -10 -3 0 -8 5 -11 10 -3 6 -4 10 -1 10 3 0 8 -4 11 -10z m-145 -14 c0 -3 -4 -8 -10 -11 -5 -3 -10 -1 -10 4 0 6 5 11 10 11 6 0 10 -2 10 -4z m28 -153 c-10 -2 -26 -2 -35 0 -10 3 -2 5 17 5 19 0 27 -2 18 -5z m140 0 c-10 -2 -26 -2 -35 0 -10 3 -2 5 17 5 19 0 27 -2 18 -5z"/>
 </g>
<g id="layer106" fill="#a74632" stroke="none">
 <path d="M0 970 l0 -970 970 0 970 0 0 970 0 970 -970 0 -970 0 0 -970z m678 869 c-12 -6 -18 -22 -18 -44 0 -40 11 -44 40 -15 l20 20 0 -47 c0 -46 -1 -47 -16 -25 -24 34 -44 28 -44 -13 0 -34 1 -35 39 -35 30 0 44 6 55 22 l16 22 0 -27 0 -27 -97 0 c-75 0 -94 3 -85 12 7 7 12 40 12 80 0 53 -4 69 -17 77 -14 8 -2 10 47 10 49 0 61 -2 48 -10z m92 -9 c0 -21 -24 -28 -35 -10 -8 14 3 30 21 30 8 0 14 -9 14 -20z m118 9 c-15 -8 -18 -24 -18 -84 0 -62 3 -74 18 -78 9 -3 -5 -5 -33 -6 l-50 -1 3 77 c3 65 1 79 -14 90 -15 11 -9 13 47 13 48 -1 60 -3 47 -11z m224 -7 c9 -9 14 -8 23 5 13 18 35 10 35 -13 0 -8 -9 -14 -19 -14 -13 0 -21 -8 -23 -22 -3 -20 -60 -58 -123 -81 -15 -6 15 -37 35 -37 10 0 32 12 49 26 l31 26 0 -29 c0 -27 -2 -28 -56 -31 -125 -7 -141 79 -22 117 47 15 57 30 33 48 -29 20 -54 16 -86 -16 -25 -26 -29 -27 -29 -10 0 16 -5 18 -25 13 -20 -5 -25 -2 -25 13 0 19 7 20 95 19 57 -1 99 -6 107 -14z m258 1 c0 -15 1 -15 13 2 15 19 37 13 37 -11 0 -8 -9 -14 -20 -14 -11 0 -20 -5 -20 -12 0 -6 -11 -1 -24 11 -14 13 -38 24 -58 24 -31 2 -33 0 -36 -35 -4 -44 16 -52 41 -15 15 21 16 20 16 -28 0 -48 -1 -49 -16 -27 -24 34 -43 28 -43 -13 0 -33 2 -35 35 -35 24 0 39 6 47 20 17 27 28 25 28 -5 0 -25 -1 -25 -87 -25 l-88 0 3 75 c2 49 -1 81 -8 91 -11 12 1 14 84 14 83 0 96 -2 96 -17z m-440 -363 l0 -90 -30 0 -30 0 0 78 c0 70 2 78 23 88 12 7 25 12 30 13 4 0 7 -39 7 -89z m105 80 c3 -5 4 -10 1 -10 -3 0 -8 5 -11 10 -3 6 -4 10 -1 10 3 0 8 -4 11 -10z m23 -167 c-10 -2 -26 -2 -35 0 -10 3 -2 5 17 5 19 0 27 -2 18 -5z"/>
 </g>
<g id="layer107" fill="#df2b29" stroke="none">
 <path d="M0 970 l0 -970 970 0 970 0 0 970 0 970 -970 0 -970 0 0 -970z m678 869 c-12 -6 -18 -22 -18 -44 0 -40 11 -44 40 -15 l20 20 0 -47 c0 -46 -1 -47 -16 -25 -24 34 -44 28 -44 -13 0 -34 1 -35 39 -35 30 0 44 6 55 22 l16 22 0 -27 0 -27 -97 0 c-75 0 -94 3 -85 12 7 7 12 40 12 80 0 53 -4 69 -17 77 -14 8 -2 10 47 10 49 0 61 -2 48 -10z m92 -9 c0 -21 -24 -28 -35 -10 -8 14 3 30 21 30 8 0 14 -9 14 -20z m118 9 c-15 -8 -18 -24 -18 -84 0 -62 3 -74 18 -78 9 -3 -5 -5 -33 -6 l-50 -1 3 77 c3 65 1 79 -14 90 -15 11 -9 13 47 13 48 -1 60 -3 47 -11z m224 -7 c9 -9 14 -8 23 5 13 18 35 10 35 -13 0 -8 -9 -14 -19 -14 -13 0 -21 -8 -23 -22 -3 -20 -60 -58 -123 -81 -15 -6 15 -37 35 -37 10 0 32 12 49 26 l31 26 0 -29 c0 -27 -2 -28 -56 -31 -125 -7 -141 79 -22 117 47 15 57 30 33 48 -29 20 -54 16 -86 -16 -25 -26 -29 -27 -29 -10 0 16 -5 18 -25 13 -20 -5 -25 -2 -25 13 0 19 7 20 95 19 57 -1 99 -6 107 -14z m258 1 c0 -15 1 -15 13 2 15 19 37 13 37 -11 0 -8 -9 -14 -20 -14 -11 0 -20 -5 -20 -12 0 -6 -11 -1 -24 11 -14 13 -38 24 -58 24 -31 2 -33 0 -36 -35 -4 -44 16 -52 41 -15 15 21 16 20 16 -28 0 -48 -1 -49 -16 -27 -24 34 -43 28 -43 -13 0 -33 2 -35 35 -35 24 0 39 6 47 20 17 27 28 25 28 -5 0 -25 -1 -25 -87 -25 l-88 0 3 75 c2 49 -1 81 -8 91 -11 12 1 14 84 14 83 0 96 -2 96 -17z m-440 -363 l0 -90 -30 0 -30 0 0 78 c0 70 2 78 23 88 12 7 25 12 30 13 4 0 7 -39 7 -89z m104 82 c2 -4 -4 -8 -14 -8 -10 0 -16 4 -14 8 3 4 9 8 14 8 5 0 11 -4 14 -8z m36 -92 l0 -80 -32 1 c-31 2 -31 2 -5 6 27 4 27 5 27 79 0 41 2 74 5 74 3 0 5 -36 5 -80z"/>
 </g>
<g id="layer108" fill="#ff1722" stroke="none">
 <path d="M0 970 l0 -970 970 0 970 0 0 970 0 970 -970 0 -970 0 0 -970z m678 869 c-12 -6 -18 -22 -18 -44 0 -40 11 -44 40 -15 l20 20 0 -47 c0 -46 -1 -47 -16 -25 -24 34 -44 28 -44 -13 0 -34 1 -35 39 -35 30 0 44 6 55 22 l16 22 0 -27 0 -27 -97 0 c-75 0 -94 3 -85 12 7 7 12 40 12 80 0 53 -4 69 -17 77 -14 8 -2 10 47 10 49 0 61 -2 48 -10z m92 -9 c0 -21 -24 -28 -35 -10 -8 14 3 30 21 30 8 0 14 -9 14 -20z m118 9 c-15 -8 -18 -24 -18 -84 0 -62 3 -74 18 -78 9 -3 -5 -5 -33 -6 l-50 -1 3 77 c3 65 1 79 -14 90 -15 11 -9 13 47 13 48 -1 60 -3 47 -11z m224 -7 c9 -9 14 -8 23 5 13 18 35 10 35 -13 0 -8 -9 -14 -19 -14 -13 0 -21 -8 -23 -22 -3 -20 -60 -58 -123 -81 -15 -6 15 -37 35 -37 10 0 32 12 49 26 l31 26 0 -29 c0 -27 -2 -28 -56 -31 -125 -7 -141 79 -22 117 47 15 57 30 33 48 -29 20 -54 16 -86 -16 -25 -26 -29 -27 -29 -10 0 16 -5 18 -25 13 -20 -5 -25 -2 -25 13 0 19 7 20 95 19 57 -1 99 -6 107 -14z m258 1 c0 -15 1 -15 13 2 15 19 37 13 37 -11 0 -8 -9 -14 -20 -14 -11 0 -20 -5 -20 -12 0 -6 -11 -1 -24 11 -14 13 -38 24 -58 24 -31 2 -33 0 -36 -35 -4 -44 16 -52 41 -15 15 21 16 20 16 -28 0 -48 -1 -49 -16 -27 -24 34 -43 28 -43 -13 0 -33 2 -35 35 -35 24 0 39 6 47 20 17 27 28 25 28 -5 0 -25 -1 -25 -87 -25 l-88 0 3 75 c2 49 -1 81 -8 91 -11 12 1 14 84 14 83 0 96 -2 96 -17z m-440 -363 l0 -90 -30 0 -30 0 0 78 c0 70 2 78 23 88 12 7 25 12 30 13 4 0 7 -39 7 -89z m111 73 c13 -15 12 -15 -7 -5 -12 6 -25 8 -29 4 -5 -4 -5 -1 -1 6 10 16 21 15 37 -5z m29 -83 l0 -80 -32 1 c-31 2 -31 2 -5 6 27 4 27 5 27 79 0 41 2 74 5 74 3 0 5 -36 5 -80z"/>
 </g>
<g id="layer109" fill="#56906c" stroke="none">
 <path d="M0 970 l0 -970 970 0 970 0 0 970 0 970 -970 0 -970 0 0 -970z m678 869 c-12 -6 -18 -22 -18 -44 0 -40 11 -44 40 -15 l20 20 0 -47 c0 -46 -1 -47 -16 -25 -24 34 -44 28 -44 -13 0 -34 1 -35 39 -35 30 0 44 6 55 22 l16 22 0 -27 0 -27 -97 0 c-75 0 -94 3 -85 12 7 7 12 40 12 80 0 53 -4 69 -17 77 -14 8 -2 10 47 10 49 0 61 -2 48 -10z m92 -9 c0 -21 -24 -28 -35 -10 -8 14 3 30 21 30 8 0 14 -9 14 -20z m118 9 c-15 -8 -18 -24 -18 -84 0 -62 3 -74 18 -78 9 -3 -5 -5 -33 -6 l-50 -1 3 77 c3 65 1 79 -14 90 -15 11 -9 13 47 13 48 -1 60 -3 47 -11z m224 -7 c9 -9 14 -8 23 5 13 18 35 10 35 -13 0 -8 -9 -14 -19 -14 -13 0 -21 -8 -23 -22 -3 -20 -60 -58 -123 -81 -15 -6 15 -37 35 -37 10 0 32 12 49 26 l31 26 0 -29 c0 -27 -2 -28 -56 -31 -125 -7 -141 79 -22 117 47 15 57 30 33 48 -29 20 -54 16 -86 -16 -25 -26 -29 -27 -29 -10 0 16 -5 18 -25 13 -20 -5 -25 -2 -25 13 0 19 7 20 95 19 57 -1 99 -6 107 -14z m258 1 c0 -15 1 -15 13 2 15 19 37 13 37 -11 0 -8 -9 -14 -20 -14 -11 0 -20 -5 -20 -12 0 -6 -11 -1 -24 11 -14 13 -38 24 -58 24 -31 2 -33 0 -36 -35 -4 -44 16 -52 41 -15 15 21 16 20 16 -28 0 -48 -1 -49 -16 -27 -24 34 -43 28 -43 -13 0 -33 2 -35 35 -35 24 0 39 6 47 20 17 27 28 25 28 -5 0 -25 -1 -25 -87 -25 l-88 0 3 75 c2 49 -1 81 -8 91 -11 12 1 14 84 14 83 0 96 -2 96 -17z m-440 -363 l0 -90 -30 0 -30 0 0 78 c0 70 2 78 23 88 12 7 25 12 30 13 4 0 7 -39 7 -89z m110 75 c7 -8 16 -12 21 -9 5 3 9 -31 9 -75 l0 -81 -29 0 c-37 0 -44 19 -40 103 4 82 12 95 39 62z"/>
 </g>
<g id="layer110" fill="#0080e6" stroke="none">
 <path d="M0 970 l0 -970 970 0 970 0 0 970 0 970 -970 0 -970 0 0 -970z m678 869 c-12 -6 -18 -22 -18 -44 0 -40 11 -44 40 -15 l20 20 0 -47 c0 -46 -1 -47 -16 -25 -24 34 -44 28 -44 -13 0 -34 1 -35 39 -35 30 0 44 6 55 22 l16 22 0 -27 0 -27 -97 0 c-75 0 -94 3 -85 12 7 7 12 40 12 80 0 53 -4 69 -17 77 -14 8 -2 10 47 10 49 0 61 -2 48 -10z m92 -9 c0 -21 -24 -28 -35 -10 -8 14 3 30 21 30 8 0 14 -9 14 -20z m118 9 c-15 -8 -18 -24 -18 -84 0 -62 3 -74 18 -78 9 -3 -5 -5 -33 -6 l-50 -1 3 77 c3 65 1 79 -14 90 -15 11 -9 13 47 13 48 -1 60 -3 47 -11z m224 -7 c9 -9 14 -8 23 5 13 18 35 10 35 -13 0 -8 -9 -14 -19 -14 -13 0 -21 -8 -23 -22 -3 -20 -60 -58 -123 -81 -15 -6 15 -37 35 -37 10 0 32 12 49 26 l31 26 0 -29 c0 -27 -2 -28 -56 -31 -125 -7 -141 79 -22 117 47 15 57 30 33 48 -29 20 -54 16 -86 -16 -25 -26 -29 -27 -29 -10 0 16 -5 18 -25 13 -20 -5 -25 -2 -25 13 0 19 7 20 95 19 57 -1 99 -6 107 -14z m258 1 c0 -15 1 -15 13 2 15 19 37 13 37 -11 0 -8 -9 -14 -20 -14 -11 0 -20 -5 -20 -12 0 -6 -11 -1 -24 11 -14 13 -38 24 -58 24 -31 2 -33 0 -36 -35 -4 -44 16 -52 41 -15 15 21 16 20 16 -28 0 -48 -1 -49 -16 -27 -24 34 -43 28 -43 -13 0 -33 2 -35 35 -35 24 0 39 6 47 20 17 27 28 25 28 -5 0 -25 -1 -25 -87 -25 l-88 0 3 75 c2 49 -1 81 -8 91 -11 12 1 14 84 14 83 0 96 -2 96 -17z m-349 -270 l49 -28 0 -77 0 -78 -100 0 -100 0 0 78 0 77 48 27 c26 15 49 28 51 28 1 0 25 -12 52 -27z"/>
 <path d="M945 1564 c-12 -13 -15 -33 -13 -93 l3 -76 33 -3 32 -3 2 68 c2 90 0 106 -15 115 -17 11 -24 10 -42 -8z"/>
 </g>
<g id="layer111" fill="#949494" stroke="none">
 <path d="M0 970 l0 -970 970 0 970 0 0 970 0 970 -970 0 -970 0 0 -970z m678 869 c-12 -6 -18 -22 -18 -44 0 -40 11 -44 40 -15 l20 20 0 -47 c0 -46 -1 -47 -16 -25 -24 34 -44 28 -44 -13 0 -34 1 -35 39 -35 30 0 44 6 55 22 l16 22 0 -27 0 -27 -97 0 c-75 0 -94 3 -85 12 7 7 12 40 12 80 0 53 -4 69 -17 77 -14 8 -2 10 47 10 49 0 61 -2 48 -10z m92 -9 c0 -21 -24 -28 -35 -10 -8 14 3 30 21 30 8 0 14 -9 14 -20z m118 9 c-15 -8 -18 -24 -18 -84 0 -62 3 -74 18 -78 9 -3 -5 -5 -33 -6 l-50 -1 3 77 c3 65 1 79 -14 90 -15 11 -9 13 47 13 48 -1 60 -3 47 -11z m224 -7 c9 -9 14 -8 23 5 13 18 35 10 35 -13 0 -8 -9 -14 -19 -14 -13 0 -21 -8 -23 -22 -3 -20 -60 -58 -123 -81 -15 -6 15 -37 35 -37 10 0 32 12 49 26 l31 26 0 -29 c0 -27 -2 -28 -56 -31 -125 -7 -141 79 -22 117 47 15 57 30 33 48 -29 20 -54 16 -86 -16 -25 -26 -29 -27 -29 -10 0 16 -5 18 -25 13 -20 -5 -25 -2 -25 13 0 19 7 20 95 19 57 -1 99 -6 107 -14z m258 1 c0 -15 1 -15 13 2 15 19 37 13 37 -11 0 -8 -9 -14 -20 -14 -11 0 -20 -5 -20 -12 0 -6 -11 -1 -24 11 -14 13 -38 24 -58 24 -31 2 -33 0 -36 -35 -4 -44 16 -52 41 -15 15 21 16 20 16 -28 0 -48 -1 -49 -16 -27 -24 34 -43 28 -43 -13 0 -33 2 -35 35 -35 24 0 39 6 47 20 17 27 28 25 28 -5 0 -25 -1 -25 -87 -25 l-88 0 3 75 c2 49 -1 81 -8 91 -11 12 1 14 84 14 83 0 96 -2 96 -17z m-349 -270 c27 -16 49 -31 49 -35 0 -5 74 -8 165 -8 l164 0 14 -32 c15 -34 29 -70 66 -168 51 -133 113 -390 130 -537 9 -77 9 -105 -4 -169 -9 -42 -20 -84 -24 -93 -5 -9 -16 -32 -25 -51 -46 -101 -146 -212 -256 -287 -135 -91 -364 -113 -558 -53 -115 36 -260 147 -313 240 -8 14 -19 32 -25 40 -16 21 -60 135 -73 192 -23 96 -5 258 44 403 7 22 41 123 74 225 33 102 69 208 79 235 l18 50 159 3 c88 1 162 6 165 11 5 7 91 61 99 61 1 0 25 -12 52 -27z"/>
 <path d="M945 1564 c-12 -13 -15 -33 -13 -93 l3 -76 33 -3 32 -3 2 68 c2 90 0 106 -15 115 -17 11 -24 10 -42 -8z"/>
 <path d="M911 1359 c-31 -26 -24 -54 14 -54 20 -1 30 -6 30 -15 0 -17 16 -31 27 -24 4 3 8 14 8 25 0 16 5 18 25 13 35 -9 44 20 16 50 -27 29 -87 31 -120 5z m49 -3 c0 -11 -19 -15 -25 -6 -3 5 1 10 9 10 9 0 16 -2 16 -4z m50 0 c0 -3 -4 -8 -10 -11 -5 -3 -10 -1 -10 4 0 6 5 11 10 11 6 0 10 -2 10 -4z m-85 -26 c3 -5 1 -10 -4 -10 -6 0 -11 5 -11 10 0 6 2 10 4 10 3 0 8 -4 11 -10z m115 0 c0 -5 -7 -10 -16 -10 -8 0 -12 5 -9 10 3 6 10 10 16 10 5 0 9 -4 9 -10z m-63 -7 c-4 -3 -10 -3 -14 0 -3 4 0 7 7 7 7 0 10 -3 7 -7z"/>
 <path d="M655 1118 c-12 -40 -10 -76 6 -135 10 -37 16 -70 14 -73 -2 -4 3 -26 11 -51 11 -31 14 -62 9 -104 -6 -59 0 -82 43 -167 2 -5 -5 -8 -16 -8 -27 0 -52 -32 -52 -67 0 -17 -5 -33 -12 -35 -17 -6 0 -28 21 -28 10 0 24 7 31 15 17 20 27 19 35 -5 7 -23 47 -27 63 -7 6 7 12 31 13 54 2 23 6 40 10 37 4 -2 12 4 18 13 9 16 10 16 11 -5 0 -13 -4 -21 -9 -18 -13 8 -22 -21 -16 -50 3 -13 7 -36 10 -50 4 -19 10 -24 22 -20 17 7 14 2 -32 -54 l-20 -25 26 23 26 22 18 -20 c19 -21 60 -27 70 -10 3 6 14 9 23 9 15 -1 14 -2 -1 -6 -13 -3 -16 -10 -12 -21 4 -10 8 -23 9 -31 3 -14 34 -41 48 -41 4 0 15 12 25 26 15 24 15 28 1 38 -8 6 -16 14 -16 19 -1 4 -2 8 -3 10 -9 31 -6 35 32 30 45 -6 66 7 85 54 16 38 9 63 -17 63 -10 0 -19 4 -19 10 0 5 8 9 18 8 50 -4 75 18 32 29 -23 6 -27 23 -5 23 19 0 19 17 0 54 -8 15 -15 35 -15 44 0 13 -2 13 -19 -2 -18 -17 -51 -13 -51 6 0 6 6 5 15 -2 10 -9 15 -9 15 -1 0 6 7 11 16 11 11 0 14 6 10 18 -5 15 -5 15 8 -1 14 -18 17 -16 53 24 21 23 38 47 38 53 1 6 6 20 12 31 16 30 27 105 14 105 -14 0 -24 -19 -28 -54 -2 -17 -13 -40 -24 -52 -25 -27 -59 -38 -59 -18 0 15 -34 37 -44 27 -3 -3 -6 17 -6 45 0 54 -12 71 -36 51 -10 -8 -12 -15 -4 -23 19 -19 10 -96 -12 -96 -5 0 -6 5 -3 10 7 11 -35 30 -68 30 -14 1 -34 17 -57 47 -33 44 -35 51 -35 122 0 42 4 84 9 94 6 13 4 17 -12 17 -15 0 -22 -9 -28 -37 -10 -50 -6 -181 8 -215 5 -15 8 -33 5 -40 -3 -8 -9 -2 -16 15 -13 34 -19 34 -31 1 l-10 -25 -35 45 c-19 25 -47 69 -61 97 -24 44 -26 58 -21 115 5 53 4 64 -9 64 -8 0 -16 -6 -19 -12z m325 -302 c0 -2 -9 -6 -20 -9 -11 -3 -18 -1 -14 4 5 9 34 13 34 5z m193 -93 c-3 -7 -9 -13 -14 -13 -5 0 -9 6 -9 13 0 8 6 14 14 14 8 0 12 -6 9 -14z m-350 -7 c4 -10 0 -12 -15 -8 -15 4 -17 7 -6 13 17 11 15 11 21 -5z m67 -20 c0 -12 7 -31 15 -42 14 -19 14 -19 15 0 0 11 2 17 5 14 4 -3 3 -18 -1 -32 l-6 -27 -19 31 c-11 17 -19 38 -19 48 0 10 -6 24 -12 31 -11 10 -10 11 5 6 9 -4 17 -17 17 -29z m-41 -62 c4 3 5 -9 2 -27 -4 -31 -5 -31 -12 -7 -4 14 -7 36 -7 50 1 23 1 23 5 2 2 -12 8 -20 12 -18z m271 2 c0 -3 -5 -8 -12 -12 -7 -4 -8 -3 -4 4 7 12 16 16 16 8z m-40 -10 c0 -3 -5 -8 -12 -12 -7 -4 -8 -3 -4 4 7 12 16 16 16 8z m-12 -71 c-3 -3 -9 2 -12 12 -6 14 -5 15 5 6 7 -7 10 -15 7 -18z m-306 -20 c-4 -25 -13 -31 -25 -19 -6 7 14 44 24 44 3 0 4 -11 1 -25z m199 -38 c-8 -8 -11 -3 -11 19 1 25 2 27 11 11 8 -14 8 -22 0 -30z m-16 -28 c11 -17 2 -18 -19 -3 -17 12 -17 14 -4 14 9 0 20 -5 23 -11z m30 1 c3 -5 4 -10 1 -10 -3 0 -8 5 -11 10 -3 6 -4 10 -1 10 3 0 8 -4 11 -10z m-62 -64 c4 -10 1 -13 -8 -9 -8 3 -12 9 -9 14 7 12 11 11 17 -5z"/>
 </g>
<g id="layer112" fill="#4aa5ee" stroke="none">
 <path d="M0 970 l0 -970 970 0 970 0 0 970 0 970 -970 0 -970 0 0 -970z m678 869 c-26 -15 -24 -69 2 -69 10 0 24 8 29 18 8 13 10 6 11 -33 0 -48 -1 -49 -16 -27 -24 34 -44 28 -44 -13 0 -33 2 -35 34 -35 25 0 40 7 55 26 12 15 22 23 22 18 1 -5 2 -16 3 -24 0 -8 9 -16 19 -18 15 -3 17 5 17 72 0 61 -3 77 -17 85 -13 7 30 10 137 9 114 0 161 -4 178 -15 19 -12 22 -12 22 3 0 21 34 14 38 -9 2 -12 -3 -17 -17 -17 -14 0 -21 -6 -21 -18 0 -25 -25 -45 -82 -66 -51 -19 -55 -25 -36 -44 19 -19 44 -14 77 14 l31 26 0 -29 c0 -27 -2 -28 -58 -31 -46 -2 -64 1 -83 16 -20 17 -22 24 -14 48 8 21 23 33 64 49 59 22 72 38 44 53 -27 15 -71 3 -93 -26 -19 -24 -20 -24 -20 -3 0 18 -4 20 -24 15 -17 -4 -27 -1 -34 12 -19 33 -32 4 -32 -72 0 -63 3 -74 18 -76 51 -4 -109 -13 -202 -10 -81 2 -106 6 -97 15 17 17 14 119 -5 145 l-15 22 63 0 c48 -1 59 -3 46 -11z m92 -9 c0 -21 -24 -28 -35 -10 -8 14 3 30 21 30 8 0 14 -9 14 -20z m601 3 c1 -17 2 -17 6 0 6 22 37 18 41 -6 2 -12 -3 -17 -17 -17 -12 0 -21 -5 -21 -12 0 -6 -11 -1 -24 11 -14 13 -38 24 -58 24 -30 2 -33 -1 -36 -30 -3 -26 1 -33 14 -33 9 0 23 8 30 18 12 15 13 11 13 -33 0 -48 -1 -49 -16 -27 -24 34 -43 28 -43 -13 0 -33 2 -35 35 -35 24 0 39 6 47 20 17 27 28 25 28 -5 0 -25 -1 -25 -87 -25 l-88 0 3 75 c2 49 -1 81 -8 91 -11 12 1 14 84 14 84 0 96 -2 97 -17z m-350 -270 c27 -16 49 -31 49 -35 0 -5 74 -8 165 -8 l164 0 14 -32 c15 -34 29 -70 66 -168 51 -133 113 -390 130 -537 9 -77 9 -105 -4 -169 -9 -42 -20 -84 -24 -93 -5 -9 -16 -32 -25 -51 -46 -101 -146 -212 -256 -287 -135 -91 -364 -113 -558 -53 -115 36 -260 147 -313 240 -8 14 -19 32 -25 40 -16 21 -60 135 -73 192 -23 96 -5 258 44 403 7 22 41 123 74 225 33 102 69 208 79 235 l18 50 159 3 c88 1 162 6 165 11 5 7 91 61 99 61 1 0 25 -12 52 -27z"/>
 <path d="M945 1564 c-12 -13 -15 -33 -13 -93 l3 -76 33 -3 32 -3 2 68 c2 90 0 106 -15 115 -17 11 -24 10 -42 -8z"/>
 <path d="M911 1359 c-31 -26 -24 -54 14 -54 20 -1 30 -6 30 -15 0 -17 16 -31 27 -24 4 3 8 14 8 25 0 16 5 18 25 13 35 -9 44 20 16 50 -27 29 -87 31 -120 5z m49 -3 c0 -11 -19 -15 -25 -6 -3 5 1 10 9 10 9 0 16 -2 16 -4z m50 0 c0 -3 -4 -8 -10 -11 -5 -3 -10 -1 -10 4 0 6 5 11 10 11 6 0 10 -2 10 -4z m-85 -26 c3 -5 1 -10 -4 -10 -6 0 -11 5 -11 10 0 6 2 10 4 10 3 0 8 -4 11 -10z m115 0 c0 -5 -7 -10 -16 -10 -8 0 -12 5 -9 10 3 6 10 10 16 10 5 0 9 -4 9 -10z m-63 -7 c-4 -3 -10 -3 -14 0 -3 4 0 7 7 7 7 0 10 -3 7 -7z"/>
 <path d="M655 1118 c-12 -40 -10 -76 6 -135 10 -37 16 -70 14 -73 -2 -4 3 -26 11 -51 11 -31 14 -62 9 -104 -6 -59 0 -82 43 -167 2 -5 -5 -8 -16 -8 -27 0 -52 -32 -52 -67 0 -17 -5 -33 -12 -35 -17 -6 0 -28 21 -28 10 0 24 7 31 15 17 20 27 19 35 -5 7 -23 47 -27 63 -7 6 7 12 31 13 54 2 23 6 40 10 37 4 -2 12 4 18 13 9 16 10 16 11 -5 0 -13 -4 -21 -9 -18 -13 8 -22 -21 -16 -50 3 -13 7 -36 10 -50 4 -19 10 -24 22 -20 17 7 14 2 -32 -54 l-20 -25 26 23 26 22 18 -20 c19 -21 60 -27 70 -10 3 6 14 9 23 9 15 -1 14 -2 -1 -6 -13 -3 -16 -10 -12 -21 4 -10 8 -23 9 -31 3 -14 34 -41 48 -41 4 0 15 12 25 26 15 24 15 28 1 38 -8 6 -16 14 -16 19 -1 4 -2 8 -3 10 -9 31 -6 35 32 30 45 -6 66 7 85 54 16 38 9 63 -17 63 -10 0 -19 4 -19 10 0 5 8 9 18 8 50 -4 75 18 32 29 -23 6 -27 23 -5 23 19 0 19 17 0 54 -8 15 -15 35 -15 44 0 13 -2 13 -19 -2 -18 -17 -51 -13 -51 6 0 6 6 5 15 -2 10 -9 15 -9 15 -1 0 6 7 11 16 11 11 0 14 6 10 18 -5 15 -5 15 8 -1 14 -18 17 -16 53 24 21 23 38 47 38 53 1 6 6 20 12 31 16 30 27 105 14 105 -14 0 -24 -19 -28 -54 -2 -17 -13 -40 -24 -52 -25 -27 -59 -38 -59 -18 0 15 -34 37 -44 27 -3 -3 -6 17 -6 45 0 54 -12 71 -36 51 -10 -8 -12 -15 -4 -23 19 -19 10 -96 -12 -96 -5 0 -6 5 -3 10 7 11 -35 30 -68 30 -14 1 -34 17 -57 47 -33 44 -35 51 -35 122 0 42 4 84 9 94 6 13 4 17 -12 17 -15 0 -22 -9 -28 -37 -10 -50 -6 -181 8 -215 5 -15 8 -33 5 -40 -3 -8 -9 -2 -16 15 -13 34 -19 34 -31 1 l-10 -25 -35 45 c-19 25 -47 69 -61 97 -24 44 -26 58 -21 115 5 53 4 64 -9 64 -8 0 -16 -6 -19 -12z m325 -302 c0 -2 -9 -6 -20 -9 -11 -3 -18 -1 -14 4 5 9 34 13 34 5z m193 -93 c-3 -7 -9 -13 -14 -13 -5 0 -9 6 -9 13 0 8 6 14 14 14 8 0 12 -6 9 -14z m-350 -7 c4 -10 0 -12 -15 -8 -15 4 -17 7 -6 13 17 11 15 11 21 -5z m67 -20 c0 -12 7 -31 15 -42 14 -19 14 -19 15 0 0 11 2 17 5 14 4 -3 3 -18 -1 -32 l-6 -27 -19 31 c-11 17 -19 38 -19 48 0 10 -6 24 -12 31 -11 10 -10 11 5 6 9 -4 17 -17 17 -29z m-41 -62 c4 3 5 -9 2 -27 -4 -31 -5 -31 -12 -7 -4 14 -7 36 -7 50 1 23 1 23 5 2 2 -12 8 -20 12 -18z m271 2 c0 -3 -5 -8 -12 -12 -7 -4 -8 -3 -4 4 7 12 16 16 16 8z m-40 -10 c0 -3 -5 -8 -12 -12 -7 -4 -8 -3 -4 4 7 12 16 16 16 8z m-12 -71 c-3 -3 -9 2 -12 12 -6 14 -5 15 5 6 7 -7 10 -15 7 -18z m-306 -20 c-4 -25 -13 -31 -25 -19 -6 7 14 44 24 44 3 0 4 -11 1 -25z m199 -38 c-8 -8 -11 -3 -11 19 1 25 2 27 11 11 8 -14 8 -22 0 -30z m-16 -28 c11 -17 2 -18 -19 -3 -17 12 -17 14 -4 14 9 0 20 -5 23 -11z m30 1 c3 -5 4 -10 1 -10 -3 0 -8 5 -11 10 -3 6 -4 10 -1 10 3 0 8 -4 11 -10z m-62 -64 c4 -10 1 -13 -8 -9 -8 3 -12 9 -9 14 7 12 11 11 17 -5z"/>
 </g>
<g id="layer113" fill="#90c8f5" stroke="none">
 <path d="M0 970 l0 -970 970 0 970 0 0 970 0 970 -970 0 -970 0 0 -970z m678 869 c-26 -15 -24 -69 2 -69 10 0 24 8 29 18 8 13 10 6 11 -33 0 -48 -1 -49 -16 -27 -24 34 -44 28 -44 -13 0 -33 2 -35 34 -35 25 0 40 7 55 26 12 15 22 23 22 18 1 -5 2 -16 3 -24 0 -8 9 -16 19 -18 15 -3 17 5 17 72 0 61 -3 77 -17 85 -13 7 30 10 137 9 114 0 161 -4 178 -15 19 -12 22 -12 22 3 0 21 34 14 38 -9 2 -12 -3 -17 -17 -17 -14 0 -21 -6 -21 -18 0 -25 -25 -45 -82 -66 -51 -19 -55 -25 -36 -44 19 -19 44 -14 77 14 l31 26 0 -29 c0 -27 -2 -28 -58 -31 -46 -2 -64 1 -83 16 -20 17 -22 24 -14 48 8 21 23 33 64 49 59 22 72 38 44 53 -27 15 -71 3 -93 -26 -19 -24 -20 -24 -20 -3 0 18 -4 20 -24 15 -17 -4 -27 -1 -34 12 -19 33 -32 4 -32 -72 0 -63 3 -74 18 -76 51 -4 -109 -13 -202 -10 -81 2 -106 6 -97 15 17 17 14 119 -5 145 l-15 22 63 0 c48 -1 59 -3 46 -11z m92 -9 c0 -21 -24 -28 -35 -10 -8 14 3 30 21 30 8 0 14 -9 14 -20z m601 3 c1 -17 2 -17 6 0 6 22 37 18 41 -6 2 -12 -3 -17 -17 -17 -12 0 -21 -5 -21 -12 0 -6 -11 -1 -24 11 -14 13 -38 24 -58 24 -30 2 -33 -1 -36 -30 -3 -26 1 -33 14 -33 9 0 23 8 30 18 12 15 13 11 13 -33 0 -48 -1 -49 -16 -27 -24 34 -43 28 -43 -13 0 -33 2 -35 35 -35 24 0 39 6 47 20 17 27 28 25 28 -5 0 -25 -1 -25 -87 -25 l-88 0 3 75 c2 49 -1 81 -8 91 -11 12 1 14 84 14 84 0 96 -2 97 -17z m-350 -270 c27 -16 49 -31 49 -35 0 -5 76 -8 168 -8 l168 0 52 -142 c103 -286 170 -582 158 -708 -16 -175 -133 -363 -292 -470 -146 -99 -313 -130 -499 -91 -267 55 -442 238 -500 521 -21 101 -14 152 51 380 23 79 155 472 166 493 8 15 26 17 168 17 87 0 160 4 162 8 3 7 88 62 97 62 1 0 25 -12 52 -27z"/>
 <path d="M945 1564 c-12 -13 -15 -33 -13 -93 l3 -76 33 -3 32 -3 2 68 c2 90 0 106 -15 115 -17 11 -24 10 -42 -8z"/>
 <path d="M910 1356 c-13 -15 -20 -32 -17 -40 7 -18 33 -21 42 -6 4 6 11 8 16 5 5 -4 9 -1 9 4 0 6 5 11 11 11 8 0 8 -4 2 -12 -21 -28 -23 -48 -4 -48 12 0 18 7 17 18 -1 13 7 17 29 17 39 0 43 24 11 54 -20 19 -28 22 -40 12 -10 -8 -16 -9 -21 -1 -10 17 -30 12 -55 -14z m50 0 c0 -11 -19 -15 -25 -6 -3 5 1 10 9 10 9 0 16 -2 16 -4z m50 0 c0 -3 -4 -8 -10 -11 -5 -3 -10 -1 -10 4 0 6 5 11 10 11 6 0 10 -2 10 -4z m-82 -35 c3 -8 -1 -12 -9 -9 -7 2 -15 10 -17 17 -3 8 1 12 9 9 7 -2 15 -10 17 -17z m112 11 c0 -13 -12 -22 -22 -16 -10 6 -1 24 13 24 5 0 9 -4 9 -8z"/>
 <path d="M656 1118 c-3 -7 -5 -21 -5 -30 -1 -10 -2 -24 -2 -30 -2 -13 19 -112 46 -219 11 -44 12 -64 3 -93 -14 -43 -2 -86 41 -151 27 -42 30 -85 5 -85 -17 0 -18 12 -2 28 13 13 -5 42 -28 42 -19 0 -44 -40 -44 -71 0 -15 -5 -29 -12 -31 -16 -6 -1 -28 19 -28 9 0 25 8 35 17 17 15 19 15 31 -1 9 -12 23 -17 42 -14 28 3 30 6 33 51 2 31 8 47 17 47 7 0 16 6 18 13 3 6 6 2 6 -10 1 -13 -3 -23 -9 -23 -11 0 -13 -62 -4 -98 4 -14 12 -21 20 -18 21 8 17 1 -18 -41 -21 -25 -24 -31 -8 -16 25 21 25 21 49 2 30 -24 40 -24 90 3 l41 22 -20 21 c-31 33 -24 36 10 5 60 -56 140 -24 140 56 0 27 -4 34 -20 34 -23 0 -23 0 -11 34 7 17 7 26 -2 30 -7 2 3 5 22 5 36 1 36 2 10 68 -13 32 -12 34 36 83 27 27 46 53 42 56 -4 4 -1 17 7 28 7 12 17 41 21 65 10 61 -16 51 -30 -11 -12 -54 -27 -74 -60 -80 -17 -4 -25 0 -28 14 -6 20 -43 25 -50 6 -2 -7 -4 14 -3 47 1 49 -2 60 -16 63 -15 3 -17 -3 -12 -45 6 -61 -5 -81 -38 -65 l-23 12 25 -6 c21 -5 23 -4 12 7 -8 9 -35 14 -75 14 -34 -1 -52 1 -39 3 12 2 22 5 22 8 0 2 -16 24 -35 49 -19 25 -37 60 -40 78 -6 30 3 89 20 130 5 13 2 17 -13 17 -15 0 -21 -9 -26 -37 -9 -60 -7 -201 4 -208 6 -3 10 -15 10 -26 0 -10 6 -19 13 -19 8 0 14 -6 14 -14 0 -12 -4 -12 -23 0 -12 9 -25 22 -28 30 -12 32 -26 11 -28 -43 -1 -39 -3 -47 -5 -24 -3 18 -17 52 -31 74 -96 143 -94 136 -89 215 3 56 1 72 -10 72 -7 0 -15 -6 -17 -12z m324 -302 c0 -2 -9 -6 -20 -9 -11 -3 -18 -1 -14 4 5 9 34 13 34 5z m-43 -43 c-4 -3 -7 0 -7 7 0 7 3 10 7 7 3 -4 3 -10 0 -14z m-67 -14 c0 -6 -4 -7 -10 -4 -5 3 -10 11 -10 16 0 6 5 7 10 4 6 -3 10 -11 10 -16z m201 -12 c-10 -9 -11 -8 -5 6 3 10 9 15 12 12 3 -3 0 -11 -7 -18z m95 -7 c23 0 16 -14 -31 -60 -25 -24 -45 -41 -45 -38 0 18 14 38 26 38 8 0 14 5 14 10 0 6 -9 10 -20 10 -14 0 -20 -7 -22 -22 0 -13 -2 -29 -2 -35 -1 -7 -10 -20 -21 -30 -11 -10 -14 -11 -7 -4 18 22 15 51 -5 52 -15 0 -14 2 3 9 12 4 24 16 28 25 4 11 15 15 33 13 25 -3 28 0 26 27 0 17 1 24 4 18 2 -7 11 -13 19 -13z m-136 6 c0 -3 -5 -8 -12 -12 -7 -4 -8 -3 -4 4 7 12 16 16 16 8z m-100 -22 c0 -8 -5 -12 -10 -9 -6 4 -8 11 -5 16 9 14 15 11 15 -7z m-93 -20 c-1 -2 -13 -1 -26 3 -16 4 -19 8 -10 14 12 7 45 -9 36 -17z m37 20 c9 -3 16 -12 16 -19 0 -8 5 -26 11 -42 l12 -28 7 25 c7 22 8 20 9 -12 1 -44 -11 -49 -28 -12 -11 26 -12 26 -31 9 -11 -10 -20 -30 -21 -44 0 -24 -1 -24 -9 -6 -5 11 -8 36 -8 55 0 35 0 35 7 5 l6 -29 18 27 c21 32 22 46 2 53 -8 4 -15 10 -15 15 0 11 3 11 24 3z m-77 -71 c-3 -10 -5 -4 -5 12 0 17 2 24 5 18 2 -7 2 -21 0 -30z m220 0 c-4 -3 -10 -3 -14 0 -3 4 0 7 7 7 7 0 10 -3 7 -7z m94 -60 c-9 -16 -10 -15 -11 8 0 14 3 29 8 33 12 12 14 -22 3 -41z m-163 -38 c-3 -3 -9 2 -12 12 -6 14 -5 15 5 6 7 -7 10 -15 7 -18z m131 -16 c13 -25 15 -36 6 -29 -13 11 -38 70 -30 70 3 0 13 -18 24 -41z m27 -4 c1 -8 -2 -13 -7 -9 -5 3 -9 12 -9 21 0 19 13 9 16 -12z m-82 3 c-3 -5 -9 -6 -13 -4 -4 3 -23 -10 -41 -29 -19 -19 -29 -35 -24 -35 6 0 15 5 22 12 9 9 12 8 12 -5 0 -9 -4 -16 -9 -14 -5 1 -17 -7 -26 -18 -9 -11 -13 -14 -9 -6 4 9 0 19 -11 28 -17 12 -17 13 -2 13 12 0 20 11 24 31 3 17 9 26 13 20 4 -8 12 -7 24 2 21 15 48 18 40 5z m-123 -35 c13 -16 12 -17 -3 -4 -10 7 -18 15 -18 17 0 8 8 3 21 -13z m12 -97 c4 -10 1 -13 -8 -9 -8 3 -12 9 -9 14 7 12 11 11 17 -5z"/>
 <path d="M1135 540 c-3 -5 -4 -14 0 -20 8 -13 35 -1 35 16 0 16 -26 19 -35 4z"/>
 <path d="M985 356 c-11 -6 -22 -12 -24 -13 -5 -3 20 -33 28 -33 3 0 17 9 30 19 23 18 23 19 5 29 -13 6 -25 6 -39 -2z"/>
 <path d="M1008 312 c-34 -21 -31 -37 8 -37 24 0 30 5 32 28 4 31 -2 32 -40 9z"/>
 </g>
<g id="layer114" fill="#b6dbf8" stroke="none">
 <path d="M0 970 l0 -970 970 0 970 0 0 970 0 970 -970 0 -970 0 0 -970z m678 869 c-26 -15 -24 -69 2 -69 10 0 24 8 29 18 8 13 10 6 11 -33 0 -48 -1 -49 -16 -27 -24 34 -44 28 -44 -13 0 -33 2 -35 34 -35 25 0 40 7 55 26 12 15 22 23 22 18 1 -5 2 -16 3 -24 0 -8 9 -16 19 -18 15 -3 17 5 17 72 0 61 -3 77 -17 85 -13 7 30 10 137 9 114 0 161 -4 178 -15 19 -12 22 -12 22 3 0 21 34 14 38 -9 2 -12 -3 -17 -17 -17 -14 0 -21 -6 -21 -18 0 -25 -25 -45 -82 -66 -51 -19 -55 -25 -36 -44 19 -19 44 -14 77 14 l31 26 0 -29 c0 -27 -2 -28 -58 -31 -46 -2 -64 1 -83 16 -20 17 -22 24 -14 48 8 21 23 33 64 49 59 22 72 38 44 53 -27 15 -71 3 -93 -26 -19 -24 -20 -24 -20 -3 0 18 -4 20 -24 15 -17 -4 -27 -1 -34 12 -19 33 -32 4 -32 -72 0 -63 3 -74 18 -76 51 -4 -109 -13 -202 -10 -81 2 -106 6 -97 15 17 17 14 119 -5 145 l-15 22 63 0 c48 -1 59 -3 46 -11z m92 -9 c0 -21 -24 -28 -35 -10 -8 14 3 30 21 30 8 0 14 -9 14 -20z m601 3 c1 -17 2 -17 6 0 6 22 37 18 41 -6 2 -12 -3 -17 -17 -17 -12 0 -21 -5 -21 -12 0 -6 -11 -1 -24 11 -14 13 -38 24 -58 24 -30 2 -33 -1 -36 -30 -3 -26 1 -33 14 -33 9 0 23 8 30 18 12 15 13 11 13 -33 0 -48 -1 -49 -16 -27 -24 34 -43 28 -43 -13 0 -33 2 -35 35 -35 24 0 39 6 47 20 17 27 28 25 28 -5 0 -25 -1 -25 -87 -25 l-88 0 3 75 c2 49 -1 81 -8 91 -11 12 1 14 84 14 84 0 96 -2 97 -17z m-350 -270 c27 -16 49 -31 49 -35 0 -5 76 -8 169 -8 l168 0 52 -142 c29 -78 59 -167 67 -197 9 -31 20 -69 24 -86 39 -139 70 -320 70 -407 -1 -65 -43 -194 -90 -273 -39 -66 -169 -204 -215 -228 -142 -77 -249 -103 -385 -94 -175 11 -311 68 -420 177 -79 80 -122 151 -163 267 -25 74 -30 102 -29 178 0 91 9 134 65 320 9 28 25 84 37 125 12 41 28 89 35 105 8 17 30 81 51 143 l38 112 162 0 c89 0 164 4 166 8 3 7 88 62 97 62 1 0 25 -12 52 -27z"/>
 <path d="M945 1564 c-12 -13 -15 -33 -13 -93 l3 -76 33 -3 32 -3 2 68 c2 90 0 106 -15 115 -17 11 -24 10 -42 -8z"/>
 <path d="M985 1370 c-3 -5 -12 -7 -21 -3 -8 3 -14 1 -12 -5 2 -5 -1 -9 -7 -8 -5 0 -9 4 -7 9 4 13 -8 8 -30 -13 -21 -19 -21 -21 -5 -37 13 -13 20 -14 29 -5 8 8 15 9 25 1 9 -8 17 -8 27 0 10 8 16 9 21 1 3 -5 12 -10 18 -10 8 0 7 3 -2 9 -7 5 -10 14 -7 20 11 17 26 13 27 -6 0 -12 2 -13 6 -5 9 23 -49 73 -62 52z m19 -21 c-3 -5 -10 -7 -15 -3 -5 3 -7 10 -3 15 3 5 10 7 15 3 5 -3 7 -10 3 -15z m-76 -28 c3 -8 -1 -12 -9 -9 -7 2 -15 10 -17 17 -3 8 1 12 9 9 7 -2 15 -10 17 -17z m53 -4 c-13 -13 -26 -3 -16 12 3 6 11 8 17 5 6 -4 6 -10 -1 -17z"/>
 <path d="M955 1280 c-3 -5 1 -10 9 -10 9 0 16 5 16 10 0 6 -4 10 -9 10 -6 0 -13 -4 -16 -10z"/>
 <path d="M664 1122 c-20 -13 1 -202 28 -258 10 -21 12 -58 7 -144 -1 -32 5 -60 24 -97 15 -28 31 -54 36 -57 12 -8 -2 -62 -15 -59 -13 3 -18 33 -5 33 19 0 12 19 -11 31 -18 10 -24 8 -39 -12 -10 -13 -19 -36 -19 -51 0 -16 -4 -28 -10 -28 -19 0 -10 -19 12 -25 15 -6 26 -1 38 15 l18 23 11 -21 c8 -15 21 -22 41 -22 35 0 42 16 36 90 -3 44 -2 51 6 33 6 -13 15 -23 21 -23 5 0 6 10 2 23 -4 12 -9 38 -12 57 -7 62 -13 80 -25 80 -7 0 -9 -18 -5 -57 5 -60 -5 -47 -17 20 -5 28 -3 39 7 43 27 10 -2 114 -46 161 -20 23 -37 49 -58 93 -7 14 -12 55 -11 93 1 37 1 67 0 67 -2 0 -8 -4 -14 -8z"/>
 <path d="M847 1068 c-6 -58 -2 -196 6 -204 4 -4 7 -16 7 -26 0 -16 5 -18 38 -12 20 4 39 8 41 10 2 2 -12 21 -32 43 -49 54 -58 111 -31 209 5 16 2 22 -9 22 -10 0 -16 -14 -20 -42z"/>
 <path d="M1050 902 c0 -5 3 -12 7 -16 11 -11 3 -77 -14 -110 -12 -24 -13 -30 -1 -37 9 -6 7 -9 -9 -9 -20 0 -21 2 -11 25 10 21 8 28 -8 40 -15 11 -16 15 -4 15 10 1 9 4 -5 10 -27 12 -43 12 -25 0 12 -8 11 -10 -6 -10 -12 0 -25 -8 -29 -17 -13 -33 -17 -191 -5 -213 6 -12 9 -24 7 -27 -3 -3 -18 20 -33 51 -25 51 -29 55 -43 41 -9 -9 -15 -31 -14 -57 3 -75 93 -139 93 -66 0 11 4 16 11 12 14 -8 109 85 109 108 0 20 -16 23 -56 8 -15 -6 -29 -8 -31 -6 -3 3 14 10 38 17 23 7 52 23 65 35 15 16 29 21 44 17 21 -6 22 -4 16 18 -4 13 -9 31 -10 39 -5 39 -46 58 -46 22 0 -10 -7 -27 -15 -38 -12 -17 -12 -13 0 27 16 54 9 129 -11 129 -8 0 -14 -4 -14 -8z m-60 -176 c0 -3 -5 -8 -12 -12 -7 -4 -8 -3 -4 4 7 12 16 16 16 8z"/>
 <path d="M1235 900 c-3 -5 -4 -14 0 -19 3 -5 1 -12 -5 -16 -5 -3 -10 -16 -10 -29 0 -24 -22 -48 -52 -59 -26 -9 -22 -34 6 -39 21 -4 28 2 49 46 26 54 42 126 27 126 -5 0 -12 -4 -15 -10z"/>
 <path d="M810 797 c0 -58 22 -103 38 -79 5 7 7 24 4 37 -3 20 -1 23 17 18 12 -3 21 -2 21 2 0 9 -66 75 -75 75 -3 0 -5 -24 -5 -53z"/>
 <path d="M896 811 c-4 -5 -3 -16 0 -25 4 -10 0 -18 -10 -22 -9 -3 -16 -14 -16 -24 0 -29 47 -13 55 19 3 14 8 34 11 44 4 12 0 17 -15 17 -11 0 -22 -4 -25 -9z"/>
 <path d="M896 711 c-6 -10 10 -61 19 -61 3 0 5 16 5 35 0 33 -12 46 -24 26z"/>
 <path d="M1152 698 c-12 -12 -22 -17 -22 -10 0 7 -7 12 -15 12 -18 0 -40 -49 -28 -61 4 -4 9 3 9 17 2 32 10 40 27 26 11 -9 19 -6 37 13 29 31 23 33 -8 3z"/>
 <path d="M847 704 c-4 -4 -7 -23 -7 -43 l0 -36 20 25 c11 14 19 31 17 39 -2 16 -20 25 -30 15z"/>
 <path d="M1120 626 c0 -18 -6 -39 -13 -45 -19 -15 -29 -3 -16 20 11 21 0 26 -18 8 -12 -12 -5 -49 17 -89 9 -17 9 -21 0 -15 -7 4 -18 23 -26 41 -13 31 -16 33 -34 22 -11 -7 -20 -16 -20 -21 0 -4 5 -5 12 -1 7 4 8 3 4 -5 -4 -6 -11 -9 -15 -7 -11 7 -65 -50 -58 -61 8 -14 -12 -53 -28 -53 -19 0 -19 -9 1 -31 9 -10 14 -24 11 -31 -3 -8 -9 -2 -17 15 -9 18 -19 26 -29 22 -11 -4 -10 0 4 17 11 13 0 5 -23 -17 -23 -21 -42 -41 -42 -44 0 -2 11 6 25 19 21 20 25 21 25 7 0 -10 11 -23 25 -29 21 -9 28 -8 46 8 12 10 22 17 23 15 0 -2 12 -1 24 3 l24 8 -20 21 c-12 12 -26 35 -32 51 -9 26 -8 32 11 50 14 13 18 14 10 4 -21 -28 -5 -83 30 -109 28 -20 31 -20 54 -5 14 9 25 22 25 28 0 6 3 8 6 5 4 -4 1 -13 -6 -22 -20 -24 -2 -31 21 -9 11 11 22 36 25 56 5 31 3 37 -15 43 -17 5 -20 12 -16 28 5 16 4 18 -3 8 -7 -9 -11 -10 -17 -2 -14 23 4 41 40 41 40 0 41 1 18 52 -21 47 -33 49 -33 4z"/>
 <path d="M1143 535 c-3 -9 -3 -19 1 -22 3 -4 6 -1 6 6 0 7 5 9 10 6 6 -3 10 1 10 9 0 21 -19 21 -27 1z"/>
 <path d="M840 498 c0 -47 10 -78 26 -78 20 0 27 19 13 38 -8 9 -1 6 13 -7 15 -12 31 -20 37 -17 14 9 2 36 -15 36 -8 0 -14 4 -14 8 0 12 -39 52 -50 52 -6 0 -10 -15 -10 -32z"/>
 <path d="M983 355 c-20 -10 -21 -14 -9 -30 13 -18 14 -18 40 3 25 19 26 21 9 30 -11 6 -26 5 -40 -3z"/>
 <path d="M1020 315 c-7 -8 -19 -15 -27 -15 -13 0 -13 -3 -3 -15 16 -20 46 -19 54 1 15 40 0 58 -24 29z"/>
 </g>
<g id="layer115" fill="#ffffff" stroke="none">
 <path d="M0 970 l0 -970 970 0 970 0 0 970 0 970 -970 0 -970 0 0 -970z m678 869 c-26 -15 -24 -69 2 -69 10 0 24 8 29 18 8 13 10 6 11 -33 0 -48 -1 -49 -16 -27 -24 34 -44 28 -44 -13 0 -33 2 -35 34 -35 25 0 40 7 55 26 12 15 22 23 22 18 1 -5 2 -16 3 -24 0 -8 9 -16 19 -18 15 -3 17 5 17 72 0 61 -3 77 -17 85 -13 7 30 10 137 9 114 0 161 -4 178 -15 19 -12 22 -12 22 3 0 21 34 14 38 -9 2 -12 -3 -17 -17 -17 -14 0 -21 -6 -21 -18 0 -25 -25 -45 -82 -66 -51 -19 -55 -25 -36 -44 19 -19 44 -14 77 14 l31 26 0 -29 c0 -27 -2 -28 -58 -31 -46 -2 -64 1 -83 16 -20 17 -22 24 -14 48 8 21 23 33 64 49 59 22 72 38 44 53 -27 15 -71 3 -93 -26 -19 -24 -20 -24 -20 -3 0 18 -4 20 -24 15 -17 -4 -27 -1 -34 12 -19 33 -32 4 -32 -72 0 -63 3 -74 18 -76 51 -4 -109 -13 -202 -10 -81 2 -106 6 -97 15 17 17 14 119 -5 145 l-15 22 63 0 c48 -1 59 -3 46 -11z m92 -9 c0 -21 -24 -28 -35 -10 -8 14 3 30 21 30 8 0 14 -9 14 -20z m601 3 c1 -17 2 -17 6 0 6 22 37 18 41 -6 2 -12 -3 -17 -17 -17 -12 0 -21 -5 -21 -12 0 -6 -11 -1 -24 11 -14 13 -38 24 -58 24 -30 2 -33 -1 -36 -30 -3 -26 1 -33 14 -33 9 0 23 8 30 18 12 15 13 11 13 -33 0 -48 -1 -49 -16 -27 -24 34 -43 28 -43 -13 0 -33 2 -35 35 -35 24 0 39 6 47 20 17 27 28 25 28 -5 0 -25 -1 -25 -87 -25 l-88 0 3 75 c2 49 -1 81 -8 91 -11 12 1 14 84 14 84 0 96 -2 97 -17z m-350 -270 c27 -16 49 -31 49 -35 0 -5 76 -8 169 -8 l169 0 45 -122 c133 -364 190 -646 158 -789 -7 -30 -34 -97 -59 -149 -38 -77 -61 -110 -127 -176 -134 -135 -240 -183 -425 -191 -129 -6 -227 12 -330 61 -114 54 -223 163 -286 288 -35 69 -74 212 -74 272 0 89 62 316 171 629 l62 177 163 0 c89 0 164 4 166 8 3 7 88 62 97 62 1 0 25 -12 52 -27z"/>
 <path d="M945 1564 c-12 -13 -15 -33 -13 -93 l3 -76 33 -3 32 -3 2 68 c2 90 0 106 -15 115 -17 11 -24 10 -42 -8z"/>
 <path d="M956 1358 c3 -4 2 -13 -2 -20 -5 -7 -12 -5 -22 8 -14 18 -14 18 -8 1 3 -10 6 -22 6 -26 0 -4 7 -8 14 -8 8 0 14 5 13 11 -1 6 5 11 13 11 8 0 14 -6 12 -13 -2 -10 2 -10 18 -2 11 6 20 16 20 22 0 7 -5 6 -15 -2 -14 -12 -19 -6 -17 20 0 3 -8 6 -18 6 -10 0 -16 -4 -14 -8z"/>
 <path d="M1036 1337 c3 -10 9 -15 12 -12 3 3 0 11 -7 18 -10 9 -11 8 -5 -6z"/>
 <path d="M963 1283 c4 -3 10 -3 14 0 3 4 0 7 -7 7 -7 0 -10 -3 -7 -7z"/>
 <path d="M655 1073 c2 -58 23 -169 39 -202 6 -13 10 -64 9 -113 -2 -78 1 -96 22 -138 14 -27 28 -51 33 -54 13 -8 8 -59 -5 -63 -17 -6 -29 27 -14 37 9 5 8 11 -4 24 -9 9 -20 16 -25 16 -15 0 -34 -43 -32 -73 2 -18 -2 -27 -13 -27 -8 0 -15 -4 -15 -10 0 -17 52 -11 65 7 11 15 13 15 24 -5 17 -31 69 -31 75 0 7 35 3 76 -18 161 -16 63 -17 80 -7 86 20 13 4 90 -28 131 -67 86 -86 131 -85 203 1 46 -2 67 -11 67 -8 0 -11 -16 -10 -47z"/>
 <path d="M863 1102 c-6 -4 -13 -20 -17 -37 -6 -31 8 -233 18 -242 2 -3 21 0 41 7 l37 12 -30 32 c-51 52 -66 124 -41 195 12 34 10 44 -8 33z"/>
 <path d="M1050 900 c0 -5 4 -10 9 -10 12 0 2 -78 -15 -114 -17 -36 -17 -36 1 -36 18 0 35 59 35 123 0 35 -4 47 -15 47 -8 0 -15 -4 -15 -10z"/>
 <path d="M1233 864 c-1 -38 -31 -79 -65 -90 -24 -7 -19 -24 9 -35 18 -7 24 -2 38 29 9 20 20 45 25 54 12 21 13 78 2 78 -4 0 -8 -16 -9 -36z"/>
 <path d="M810 799 c0 -53 15 -94 31 -84 5 4 9 19 9 35 0 23 3 27 20 23 11 -3 20 -2 20 3 0 7 -68 74 -76 74 -2 0 -4 -23 -4 -51z"/>
 <path d="M902 812 c-7 -5 -10 -16 -6 -25 4 -11 0 -19 -10 -23 -25 -10 -19 -34 8 -34 18 0 25 7 28 28 3 15 9 35 13 45 8 18 -10 23 -33 9z"/>
 <path d="M1003 813 c4 -3 10 -3 14 0 3 4 0 7 -7 7 -7 0 -10 -3 -7 -7z"/>
 <path d="M946 788 c-3 -13 -8 -58 -11 -101 -5 -62 -2 -86 11 -118 10 -21 21 -39 25 -39 13 0 99 99 99 115 0 18 -3 18 -63 0 -26 -8 -45 -10 -42 -5 3 5 25 15 48 21 23 7 54 23 69 37 16 15 33 22 43 18 13 -5 15 1 12 32 -1 21 -6 43 -11 50 -13 21 -36 14 -36 -11 0 -29 -29 -57 -59 -57 -12 0 -32 -5 -44 -11 -12 -6 -8 1 11 16 39 32 40 46 5 63 -39 17 -52 15 -57 -10z"/>
 <path d="M800 682 c0 -39 29 -134 39 -128 5 3 4 23 0 43 -5 21 -11 55 -14 76 -7 43 -25 50 -25 9z"/>
 <path d="M847 704 c-4 -4 -7 -23 -7 -43 l0 -36 20 25 c11 14 19 31 17 39 -2 16 -20 25 -30 15z"/>
 <path d="M898 685 c7 -37 22 -41 22 -6 0 20 -5 31 -14 31 -9 0 -12 -8 -8 -25z"/>
 <path d="M1095 689 c-4 -6 -4 -13 -1 -16 3 -4 6 -1 6 5 0 6 8 13 18 15 15 4 15 5 0 6 -9 0 -20 -4 -23 -10z"/>
 <path d="M1080 651 c0 -6 4 -13 10 -16 6 -3 7 1 4 9 -7 18 -14 21 -14 7z"/>
 <path d="M1120 626 c0 -18 -7 -39 -15 -46 -21 -17 -29 -7 -15 19 7 15 7 21 0 21 -15 0 -23 -26 -16 -55 l6 -25 21 21 c14 14 29 19 46 16 19 -4 23 -1 18 12 -4 9 -12 28 -17 44 -14 37 -28 34 -28 -7z"/>
 <path d="M867 643 c-4 -3 -7 -26 -7 -51 0 -34 6 -50 27 -73 16 -16 34 -29 40 -29 21 0 15 57 -12 110 -25 48 -34 57 -48 43z"/>
 <path d="M980 517 c-19 -23 -28 -36 -19 -29 14 11 17 8 22 -23 11 -68 83 -99 111 -47 10 18 15 22 16 10 0 -9 -4 -20 -10 -23 -13 -8 -13 -25 0 -25 14 0 39 41 46 77 6 28 4 31 -29 37 -26 5 -38 14 -47 36 -17 42 -47 38 -90 -13z m50 30 c0 -2 -12 -14 -27 -28 l-28 -24 24 28 c23 25 31 32 31 24z"/>
 <path d="M1143 535 c-3 -9 -3 -19 1 -22 3 -4 6 -1 6 6 0 7 5 9 10 6 6 -3 10 1 10 9 0 21 -19 21 -27 1z"/>
 <path d="M1110 530 c0 -7 3 -10 7 -7 3 4 3 10 0 14 -4 3 -7 0 -7 -7z"/>
 <path d="M840 498 c0 -47 10 -78 26 -78 20 0 27 19 12 37 -12 15 -11 15 10 4 12 -6 22 -16 22 -21 0 -6 5 -10 10 -10 6 0 10 5 10 11 0 13 -70 89 -82 89 -4 0 -8 -15 -8 -32z"/>
 <path d="M951 448 c-6 -16 -17 -28 -24 -28 -12 0 -12 -6 2 -33 15 -31 18 -32 41 -20 14 7 31 13 38 13 10 0 9 5 -4 17 -9 9 -22 31 -30 48 l-12 30 -11 -27z"/>
 <path d="M876 402 c-6 -11 21 -52 35 -52 18 0 9 32 -11 37 -11 3 -17 9 -14 14 3 5 3 9 0 9 -3 0 -7 -4 -10 -8z"/>
 <path d="M980 345 c-22 -26 4 -43 30 -20 11 10 20 22 20 27 0 14 -37 9 -50 -7z"/>
 <path d="M1013 310 c-24 -13 -29 -20 -21 -28 7 -7 17 -12 24 -12 16 0 36 26 32 43 -2 12 -8 12 -35 -3z"/>
 </g>

</svg>