<svg height="512pt" viewBox="0 0 512 512.00014" width="512pt" xmlns="http://www.w3.org/2000/svg"><path d="m472.410156 70.375c2.449219-2.273438 4.414063-5.050781 5.730469-8.230469 2.398437-5.808593 2.394531-12.207031-.015625-18.011719l-12.296875-29.613281c-2.410156-5.804687-6.9375-10.324219-12.746094-12.722656-5.8125-2.402344-12.207031-2.394531-18.011719.015625l-76.621093 31.8125c-5.804688 2.410156-10.324219 6.9375-12.722657 12.746094-2.402343 5.808594-2.398437 12.207031.015626 18.011718l12.292968 29.613282c1.722656 4.144531 4.539063 7.617187 8.117188 10.148437 12.175781 42.394531 18.613281 89.34375 18.613281 135.828125 0 71.003906-57.765625 128.769532-128.769531 128.769532-71.007813 0-128.773438-57.765626-128.773438-128.769532 0-46.511718 6.445313-93.433594 18.625-135.835937 3.574219-2.53125 6.386719-6 8.105469-10.140625l12.296875-29.613282c2.410156-5.804687 2.414062-12.199218.015625-18.007812-2.402344-5.8125-6.917969-10.335938-12.726563-12.75l-76.621093-31.8125c-5.804688-2.410156-12.199219-2.417969-18.007813-.015625-5.808594 2.398437-10.335937 6.917969-12.746094 12.722656l-12.296874 29.613281c-2.410157 5.804688-2.414063 12.203126-.015626 18.011719 1.3125 3.179688 3.28125 5.957031 5.730469 8.230469-25.191406 63.394531-39.582031 130.734375-39.582031 185.628906 0 68.378906 26.628906 132.664063 74.980469 181.015625 48.347656 48.351563 112.636719 74.980469 181.015625 74.980469s132.664062-26.628906 181.015625-74.980469c48.351562-48.347656 74.980469-112.636719 74.980469-181.015625 0-54.894531-14.390626-122.234375-39.582032-185.628906zm-424.691406-20.488281 12.296875-29.613281c.875-2.105469 2.515625-3.742188 4.621094-4.613282s4.425781-.871094 6.53125.003906l76.621093 31.8125c2.101563.875 3.742188 2.515626 4.613282 4.625.867187 2.105469.867187 4.421876-.007813 6.527344l-12.296875 29.613282c-.871094 2.105468-2.511718 3.746093-4.621094 4.613281-2.105468.871093-4.421874.871093-6.527343-.003907l-76.621094-31.816406c-2.105469-.871094-3.742187-2.511718-4.613281-4.617187-.871094-2.109375-.867188-4.429688.003906-6.53125zm378.6875 376.527343c-14.179688 14.179688-29.816406 26.375-46.574219 36.445313l-7.351562-14.707031c-7.472657-14.9375-25.207031-21.503906-40.375-14.953125-24.125 10.421875-49.730469 15.703125-76.109375 15.703125-13.097656 0-26.199219-1.332032-38.933594-3.964844-4.058594-.835938-8.023438 1.773438-8.863281 5.828125-.835938 4.058594 1.773437 8.023437 5.828125 8.863281 13.730468 2.835938 27.851562 4.273438 41.96875 4.273438 28.4375 0 56.042968-5.695313 82.058594-16.933594 7.871093-3.402344 17.097656.070312 21.011718 7.894531l7.652344 15.3125c-33.808594 17.523438-71.546875 26.824219-110.722656 26.824219-39.175782 0-76.914063-9.300781-110.722656-26.824219l7.65625-15.3125c3.910156-7.824219 13.140624-11.292969 21.011718-7.894531 2.328125 1.007812 4.707032 1.984375 7.070313 2.902344 3.863281 1.503906 8.210937-.410156 9.710937-4.269532 1.5-3.859374-.414062-8.207031-4.273437-9.707031-2.195313-.855469-4.402344-1.761719-6.5625-2.695312-15.167969-6.550781-32.902344.015625-40.375 14.957031l-7.351563 14.703125c-16.753906-10.070313-32.390625-22.265625-46.574218-36.445313-45.515626-45.515624-70.585938-106.035156-70.585938-170.410156 0-52.613281 13.769531-117.273437 37.894531-178.488281l70.304688 29.191406c1.929687.800781 3.921875 1.308594 5.941406 1.578125-11.074219 41.511719-16.914063 86.800782-16.914063 131.6875 0 79.277344 64.496094 143.773438 143.769532 143.773438 79.277344 0 143.773437-64.496094 143.773437-143.773438 0-44.863281-5.835937-90.175781-16.90625-131.6875 2.015625-.269531 4.007813-.78125 5.933594-1.578125l36.003906-14.949219c3.824219-1.589843 5.636719-5.976562 4.050781-9.804687-1.589843-3.824219-5.980468-5.636719-9.804687-4.050781l-36 14.949218c-2.105469.875-4.425781.875-6.53125.007813-2.105469-.871094-3.75-2.511719-4.621094-4.613281l-12.296875-29.613282c-.875-2.105468-.875-4.425781-.007812-6.53125.871094-2.105468 2.511718-3.746093 4.613281-4.621093l76.621094-31.8125c2.105469-.875 4.425781-.878907 6.53125-.007813s3.746093 2.507813 4.621093 4.613282l12.296876 29.613281c.875 2.105469.875 4.425781.003906 6.53125-.867188 2.105469-2.507813 3.746093-4.613282 4.621093l-10.480468 4.351563c-3.828125 1.589844-5.640625 5.980469-4.050782 9.804687 1.585938 3.824219 5.976563 5.636719 9.800782 4.050782l4.167968-1.730469c24.125 61.214844 37.894532 125.875 37.894532 178.488281-.003906 64.371094-25.074219 124.890625-70.589844 170.410156zm0 0"/><path d="m103.160156 344.300781c-6.210937-1.027343-12.453125.445313-17.519531 4.105469-5.128906 3.644531-8.515625 9.082031-9.53125 15.304688-1.011719 6.179687.433594 12.402343 4.070313 17.515624.011718.015626.023437.03125.035156.046876 4.414062 6.113281 11.574218 9.761718 19.148437 9.761718 4.828125 0 9.523438-1.488281 13.640625-4.351562 5.132813-3.644532 8.515625-9.082032 9.53125-15.304688 1.007813-6.179687-.4375-12.402344-4.074218-17.515625-3.652344-5.140625-9.085938-8.535156-15.300782-9.5625zm4.570313 24.660157c-.363281 2.238281-1.578125 4.191406-3.351563 5.453124-1.550781 1.078126-3.238281 1.621094-5.015625 1.621094-2.804687 0-5.34375-1.28125-6.972656-3.523437-1.320313-1.867188-1.847656-4.136719-1.480469-6.382813.367188-2.238281 1.578125-4.1875 3.46875-5.527344 1.847656-1.335937 4.097656-1.871093 6.335938-1.5 2.238281.371094 4.199218 1.59375 5.519531 3.453126 1.332031 1.875 1.867187 4.152343 1.496094 6.40625zm0 0"/><path d="m92.125 296.734375c-3.183594-12.625-16.011719-20.316406-28.585938-17.144531-12.5625 3.171875-20.210937 15.9375-17.066406 28.472656 2.5625 10.535156 11.910156 17.886719 22.75 17.886719 1.917969 0 3.902344-.246094 5.765625-.710938 12.5-3.152343 20.195313-15.914062 17.136719-28.503906zm-20.792969 13.957031c-.664062.167969-1.414062.257813-2.109375.257813-3.835937 0-7.277344-2.710938-8.179687-6.445313-.007813-.023437-.011719-.050781-.019531-.074218-1.140626-4.527344 1.632812-9.148438 6.183593-10.296876.691407-.171874 1.382813-.253906 2.066407-.253906 3.820312 0 7.320312 2.605469 8.292968 6.460938 1.105469 4.5625-1.699218 9.207031-6.234375 10.351562zm0 0"/><path d="m62.757812 254.257812c.203126.015626.40625.023438.609376.023438h1.363281c12.304687 0 22.375-9.253906 23.421875-21.484375.570312-6.261719-1.347656-12.367187-5.402344-17.183594-4.0625-4.832031-9.757812-7.773437-16.042969-8.289062-6.257812-.507813-12.351562 1.445312-17.152343 5.511719-4.808594 4.070312-7.738282 9.761718-8.242188 15.957031-.570312 6.261719 1.347656 12.363281 5.398438 17.179687 4.0625 4.828125 9.761718 7.773438 16.046874 8.285156zm-6.5-24.175781c.183594-2.261719 1.246094-4.324219 2.992188-5.800781s3.957031-2.195312 6.238281-2.003906c2.261719.183594 4.320313 1.246094 5.785157 2.988281 1.457031 1.734375 2.148437 3.925781 1.941406 6.210937-.382813 4.449219-4.027344 7.804688-8.480469 7.804688h-1.011719c-2.164062-.242188-4.117187-1.285156-5.527344-2.960938-1.460937-1.734374-2.148437-3.925781-1.9375-6.238281zm0 0"/><path d="m71.234375 182.613281c.066406.019531.132813.035157.199219.050781 1.917968.449219 3.84375.679688 5.726562.679688 10.773438 0 20.15625-7.265625 22.820313-17.691406 3.164062-12.527344-4.425781-25.378906-16.976563-28.664063-12.601562-3.175781-25.425781 4.4375-28.570312 16.917969-3.277344 12.515625 4.261718 25.390625 16.800781 28.707031zm-2.277344-24.976562c1.140625-4.519531 5.792969-7.257813 10.3125-6.121094 4.558594 1.195313 7.324219 5.890625 6.171875 10.449219-.957031 3.753906-4.367187 6.378906-8.28125 6.378906-.683594 0-1.4375-.089844-2.1875-.257812-4.507812-1.246094-7.207031-5.882813-6.015625-10.449219zm0 0"/><path d="m426.398438 348.441406c-5.113282-3.695312-11.351563-5.167968-17.566407-4.140625-6.214843 1.023438-11.648437 4.421875-15.296875 9.558594-3.640625 5.117187-5.089844 11.335937-4.078125 17.519531 1.015625 6.222656 4.398438 11.660156 9.597657 15.351563 4.050781 2.816406 8.746093 4.304687 13.574218 4.304687 7.574219 0 14.730469-3.648437 19.179688-9.808594 3.636718-5.117187 5.085937-11.335937 4.074218-17.519531-1.015624-6.222656-4.402343-11.65625-9.484374-15.265625zm-6.78125 24.046875c-1.628907 2.253907-4.175782 3.546875-6.988282 3.546875-1.78125 0-3.46875-.546875-4.949218-1.574218-1.839844-1.308594-3.054688-3.261719-3.417969-5.5-.371094-2.257813.160156-4.53125 1.5-6.410157 1.316406-1.855469 3.273437-3.082031 5.515625-3.453125.460937-.074218.921875-.113281 1.382812-.113281 1.769532 0 3.496094.558594 5.003906 1.648437 1.835938 1.308594 3.050782 3.257813 3.414063 5.496094.371094 2.257813-.160156 4.53125-1.460937 6.359375zm0 0"/><path d="m448.453125 279.589844c-12.578125-3.175782-25.402344 4.519531-28.601563 17.210937-3.042968 12.523438 4.652344 25.28125 17.167969 28.441407 1.847657.460937 3.835938.707031 5.75.707031 10.851563 0 20.210938-7.371094 22.742188-17.851563 3.164062-12.546875-4.488281-25.335937-17.058594-28.507812zm2.496094 24.914062c-.902344 3.734375-4.34375 6.445313-8.179688 6.445313-.695312 0-1.445312-.089844-2.09375-.253907-4.554687-1.148437-7.359375-5.792968-6.265625-10.292968.984375-3.910156 4.484375-6.523438 8.308594-6.523438.679688 0 1.375.082032 2.0625.253906 4.554688 1.148438 7.328125 5.769532 6.167969 10.371094zm0 0"/><path d="m445.285156 207.324219c-6.285156.515625-11.984375 3.457031-16.046875 8.289062-4.050781 4.816407-5.972656 10.921875-5.40625 17.144531 1.050781 12.269532 11.125 21.523438 23.429688 21.523438h1.359375c.207031 0 .40625-.007812.609375-.023438 6.289062-.511718 11.984375-3.457031 16.046875-8.285156 4.050781-4.816406 5.972656-10.917968 5.40625-17.113281-.511719-6.261719-3.441406-11.953125-8.25-16.023437-4.796875-4.066407-10.890625-6.015626-17.148438-5.511719zm10.457032 22.828125c.203124 2.246094-.484376 4.433594-1.941407 6.167968-1.410156 1.675782-3.367187 2.722657-5.53125 2.960938h-1.007812c-4.457031 0-8.101563-3.351562-8.488281-7.84375-.203126-2.246094.488281-4.4375 1.945312-6.171875 1.464844-1.742187 3.523438-2.804687 5.785156-2.988281.238282-.019532.472656-.03125.707032-.03125 2.023437 0 3.964843.710937 5.53125 2.035156 1.746093 1.476562 2.808593 3.539062 3 5.871094zm0 0"/><path d="m434.832031 183.34375c1.882813 0 3.808594-.230469 5.730469-.679688.066406-.015624.128906-.03125.195312-.050781 12.539063-3.316406 20.078126-16.191406 16.820313-28.644531-3.164063-12.542969-15.988281-20.15625-28.648437-16.964844-12.492188 3.269532-20.078126 16.121094-16.914063 28.671875 2.65625 10.402344 12.039063 17.667969 22.816406 17.667969zm-2.171875-31.808594c.707032-.179687 1.417969-.265625 2.117188-.265625 3.816406 0 7.296875 2.558594 8.273437 6.433594 1.175781 4.5-1.523437 9.136719-6.03125 10.382813-.75.167968-1.5.257812-2.1875.257812-3.914062 0-7.324219-2.625-8.277343-6.359375-1.15625-4.578125 1.609374-9.273437 6.105468-10.449219zm0 0"/></svg>