<?xml version="1.0" encoding="UTF-8"?>
<svg xmlns="http://www.w3.org/2000/svg" xmlns:xlink="http://www.w3.org/1999/xlink" width="512" height="512" viewBox="0 0 60 60" version="1.1"><!-- Generator: Sketch 51.3 (57544) - http://www.bohemiancoding.com/sketch --><title>012 - Smithing</title><desc>Created with Sketch.</desc><defs/><g id="Page-1" stroke="none" stroke-width="1" fill="none" fill-rule="evenodd"><g id="012---Smithing" fill="#000000" fill-rule="nonzero"><path d="M23.835,19.642 L0.879,42.6 C-0.292145815,43.7714996 -0.292145815,45.6705004 0.879,46.842 L3.707,49.671 C4.26962374,50.233719 5.03276248,50.5498593 5.8285,50.5498593 C6.62423752,50.5498593 7.38737626,50.233719 7.95,49.671 L30.906,26.713 L33.62,27.256 L35.627,29.263 C34.7031861,30.8296594 34.9525788,32.822336 36.234,34.113 L37.648,35.527 C38.2106237,36.089719 38.9737625,36.4058593 39.7695,36.4058593 C40.5652375,36.4058593 41.3283763,36.089719 41.891,35.527 L49.669,27.749 C50.231719,27.1863763 50.5478593,26.4232375 50.5478593,25.6275 C50.5478593,24.8317625 50.231719,24.0686237 49.669,23.506 L48.255,22.092 C46.9644988,20.8110767 44.9724258,20.5617081 43.406,21.485 L41.4,19.478 L40.871,16.833 C40.7556045,16.2518216 40.4697987,15.7181549 40.05,15.3 L35.25,10.5 C34.8319913,10.0800048 34.298261,9.79416488 33.717,9.679 L31.07,9.15 L29.063,7.143 C30.0004309,5.57918534 29.7499171,3.5775511 28.456,2.293 L27.042,0.879 C25.8550156,-0.255102531 23.9859844,-0.255102531 22.799,0.879 L15.021,8.657 C13.8498542,9.82849955 13.8498542,11.7275004 15.021,12.899 L16.435,14.313 C17.7189673,15.6079301 19.7211206,15.8589216 21.285,14.921 L23.292,16.928 L23.835,19.642 Z M17.142,37.648 L15.021,35.527 C14.6305347,35.1362586 13.9972415,35.1360348 13.6065001,35.5265001 C13.2157586,35.9169654 13.2155347,36.5502585 13.606,36.941 L15.728,39.062 L13.607,41.184 L12.192,39.77 C11.7996211,39.3910278 11.1759152,39.3964476 10.7901814,39.7821814 C10.4044476,40.1679152 10.3990278,40.7916211 10.778,41.184 L12.192,42.6 L10.071,44.721 L7.95,42.6 C7.55762111,42.2210278 6.93391522,42.2264476 6.54818142,42.6121814 C6.16244763,42.9979152 6.15702779,43.6216211 6.536,44.014 L8.657,46.135 L6.536,48.255 C6.34843174,48.442777 6.09390925,48.5482867 5.8285,48.5482867 C5.56309075,48.5482867 5.30856826,48.442777 5.121,48.255 L2.293,45.426 C1.90261806,45.0355001 1.90261806,44.4024999 2.293,44.012 L24.92,21.385 L29.163,25.627 L17.142,37.648 Z M41.891,22.8 L36.941,27.75 L35.527,26.335 L40.477,21.386 L41.891,22.8 Z M46.841,23.507 L48.255,24.922 C48.6447159,25.3123851 48.6447159,25.9446149 48.255,26.335 L40.476,34.114 C40.0808554,34.4920366 39.4581446,34.4920366 39.063,34.114 L37.648,32.7 C37.272752,32.324904 37.0619271,31.8160734 37.0619271,31.2855 C37.0619271,30.7549266 37.272752,30.246096 37.648,29.871 L44.012,23.507 C44.387096,23.131752 44.8959266,22.9209271 45.4265,22.9209271 C45.9570734,22.9209271 46.465904,23.131752 46.841,23.507 Z M33.834,11.914 L38.634,16.714 C38.7737945,16.8535357 38.8691364,17.0313448 38.908,17.225 L39.391,19.642 L33.784,25.249 L31.07,24.706 L25.842,19.478 L25.3,16.764 L30.907,11.157 L33.323,11.64 C33.51682,11.6784042 33.6947557,11.773814 33.834,11.914 Z M24.213,15.021 L22.8,13.606 L27.75,8.657 L29.164,10.071 L24.213,15.021 Z M17.849,12.9 L16.435,11.486 C16.0446181,11.0955001 16.0446181,10.4624999 16.435,10.072 L24.213,2.294 C24.6034999,1.90361806 25.2365001,1.90361806 25.627,2.294 L27.042,3.708 C27.417248,4.08309602 27.6280729,4.59192663 27.6280729,5.1225 C27.6280729,5.65307337 27.417248,6.16190398 27.042,6.537 L20.678,12.9 C19.8867015,13.6564511 18.6402985,13.6564511 17.849,12.9 Z" id="Shape"/><path d="M58,39 L23,39 C22.4477153,39 22,39.4477153 22,40 C22,40.1 22.116,49.831 32.16,50.905 C32.6491019,50.9768367 33.0087676,51.4007285 33,51.895 L33,53 C33,53.5522847 32.5522847,54 32,54 C30.6735107,53.9986715 29.4009691,54.5250291 28.4629991,55.4629991 C27.5250291,56.4009691 26.9986715,57.6735107 27,59 C27,59.5522847 27.4477153,60 28,60 L54,60 C54.5522847,60 55,59.5522847 55,59 C54.9966939,56.2399468 52.7600532,54.0033061 50,54 C49.4477153,54 49,53.5522847 49,53 L49,50 C49,47.23 52.282,45 55,45 L58,45 C59.1045695,45 60,44.1045695 60,43 L60,41 C60,39.8954305 59.1045695,39 58,39 Z M39,58 L39,54 C39,52.8954305 39.8954305,52 41,52 C42.1045695,52 43,52.8954305 43,54 L43,58 L39,58 Z M58,43 L55,43 C51.224,43 47,45.994 47,50 L47,53 C47,54.6568542 48.3431458,56 50,56 C51.2709888,56.0015506 52.4036464,56.8022983 52.829,58 L45,58 L45,54 C45,51.790861 43.209139,50 41,50 C38.790861,50 37,51.790861 37,54 L37,58 L29.171,58 C29.5923314,56.7992572 30.7274857,55.9967445 32,56 C33.6568542,56 35,54.6568542 35,53 L35,51.9 C35.0165536,50.3809245 33.8822728,49.0950896 32.373,48.922 C28.0349454,48.6860672 24.5164874,45.3229851 24.085,41 L58,41 L58,43 Z" id="Shape"/><path d="M30,43 L28,43 C27.4477153,43 27,43.4477153 27,44 C27,44.5522847 27.4477153,45 28,45 L30,45 C30.5522847,45 31,44.5522847 31,44 C31,43.4477153 30.5522847,43 30,43 Z" id="Shape"/><path d="M33,44 C33,44.5522847 33.4477153,45 34,45 L47,45 C47.5522847,45 48,44.5522847 48,44 C48,43.4477153 47.5522847,43 47,43 L34,43 C33.4477153,43 33,43.4477153 33,44 Z" id="Shape"/><path d="M49.62,35.08 C49.556027,35.102043 49.4951855,35.1322956 49.439,35.17 L49.29,35.29 C48.9032597,35.6843361 48.9032597,36.3156639 49.29,36.71 C49.4804541,36.8945473 49.7348057,36.9984374 50,37 C50.4062651,37.0023626 50.77358,36.7586962 50.929371,36.3834815 C51.0851619,36.0082668 50.9984599,35.5760905 50.71,35.29 C50.4711755,35.0599916 50.1359957,34.9594376 49.81,35.02 C49.7437653,35.0292708 49.6795467,35.0495504 49.62,35.08 Z" id="Shape"/><path d="M54.793,29.793 L52.293,32.293 C52.0330434,32.5440745 51.9287874,32.9158779 52.0203028,33.2655073 C52.1118183,33.6151368 52.3848632,33.8881817 52.7344927,33.9796972 C53.0841221,34.0712126 53.4559255,33.9669566 53.707,33.707 L56.207,31.207 C56.5859722,30.8146211 56.5805524,30.1909152 56.1948186,29.8051814 C55.8090848,29.4194476 55.1853789,29.4140278 54.793,29.793 Z" id="Shape"/><path d="M53.247,36 C53.247,36.5522847 53.6947153,37 54.247,37 L57.782,37 C58.3342847,37 58.782,36.5522847 58.782,36 C58.782,35.4477153 58.3342847,35 57.782,35 L54.247,35 C53.6947153,35 53.247,35.4477153 53.247,36 Z" id="Shape"/><path d="M33.162,35.08 C33.1027638,35.0496559 33.0388917,35.029379 32.973,35.02 C32.6470135,34.9596081 32.3119106,35.0601389 32.073,35.29 C31.7845401,35.5760905 31.6978381,36.0082668 31.853629,36.3834815 C32.00942,36.7586962 32.3767349,37.0023626 32.783,37 C33.0481943,36.9984374 33.3025459,36.8945473 33.493,36.71 C33.8797403,36.3156639 33.8797403,35.6843361 33.493,35.29 L33.344,35.17 C33.2876136,35.1320261 33.2264051,35.1017582 33.162,35.08 Z" id="Shape"/><path d="M30.489,33.707 C30.8793819,33.3165001 30.8793819,32.6834999 30.489,32.293 L29.489,31.293 C29.0966211,30.9140278 28.4729152,30.9194476 28.0871814,31.3051814 C27.7014476,31.6909152 27.6960278,32.3146211 28.075,32.707 L29.075,33.707 C29.4654999,34.0973819 30.0985001,34.0973819 30.489,33.707 Z" id="Shape"/><path d="M25,35 C24.4477153,35 24,35.4477153 24,36 C24,36.5522847 24.4477153,37 25,37 L28.536,37 C29.0882847,37 29.536,36.5522847 29.536,36 C29.536,35.4477153 29.0882847,35 28.536,35 L25,35 Z" id="Shape"/></g></g></svg>
