<?xml version="1.0" encoding="iso-8859-1"?>
<!-- Generator: Adobe Illustrator 18.0.0, SVG Export Plug-In . SVG Version: 6.00 Build 0)  -->
<!DOCTYPE svg PUBLIC "-//W3C//DTD SVG 1.1//EN" "http://www.w3.org/Graphics/SVG/1.1/DTD/svg11.dtd">
<svg version="1.1" id="Capa_1" xmlns="http://www.w3.org/2000/svg" xmlns:xlink="http://www.w3.org/1999/xlink" x="0px" y="0px"
	 viewBox="0 0 471.903 471.903" style="enable-background:new 0 0 471.903 471.903;" xml:space="preserve">
<g>
	<path d="M464.403,205.584c4.142,0,7.5-3.358,7.5-7.5v-52.55c0-4.142-3.358-7.5-7.5-7.5h-20.022V71.348c0-4.142-3.358-7.5-7.5-7.5
		h-32.459c-4.142,0-7.5,3.358-7.5,7.5v66.686H74.987V71.348c0-4.142-3.358-7.5-7.5-7.5H35.028c-4.142,0-7.5,3.358-7.5,7.5v66.686
		H7.5c-4.142,0-7.5,3.358-7.5,7.5v52.55c0,4.142,3.358,7.5,7.5,7.5h20.028v19.003H7.5c-4.142,0-7.5,3.358-7.5,7.5v52.55
		c0,4.142,3.358,7.5,7.5,7.5h20.028v17.458H7.5c-4.142,0-7.5,3.358-7.5,7.5v52.55c0,4.142,3.358,7.5,7.5,7.5h20.028v23.41
		c0,4.142,3.358,7.5,7.5,7.5h32.459c4.142,0,7.5-3.358,7.5-7.5v-23.41h321.935v23.41c0,4.142,3.358,7.5,7.5,7.5h32.459
		c4.142,0,7.5-3.358,7.5-7.5v-23.41h20.022c4.142,0,7.5-3.358,7.5-7.5v-52.55c0-4.142-3.358-7.5-7.5-7.5h-20.022v-17.458h20.022
		c4.142,0,7.5-3.358,7.5-7.5v-52.55c0-4.142-3.358-7.5-7.5-7.5h-20.022v-19.003H464.403z M411.922,78.848h17.459v59.186h-17.459
		V78.848z M42.528,78.848h17.459v59.186H42.528V78.848z M15,153.034h441.903v37.55H15V153.034z M74.987,224.587v-19.003h321.935
		v19.003H74.987z M42.528,205.584h17.459v19.003H42.528V205.584z M42.528,292.137h17.459v17.458H42.528V292.137z M74.987,309.595
		v-17.458h321.935v17.458H74.987z M59.987,393.055H42.528v-15.91h17.459V393.055z M429.381,393.055h-17.459v-15.91h17.459V393.055z
		 M456.903,362.145H15v-37.55h441.903V362.145z M429.381,309.595h-17.459v-17.458h17.459V309.595z M456.903,277.137H15v-37.55
		h441.903V277.137z M429.381,224.587h-17.459v-19.003h17.459V224.587z"/>
	<circle cx="51.257" cy="171.809" r="8.531"/>
	<circle cx="51.257" cy="258.362" r="8.531"/>
	<circle cx="51.257" cy="343.37" r="8.531"/>
	<circle cx="420.651" cy="171.809" r="8.531"/>
	<circle cx="420.651" cy="258.362" r="8.531"/>
	<circle cx="420.651" cy="343.37" r="8.531"/>
</g>
<g>
</g>
<g>
</g>
<g>
</g>
<g>
</g>
<g>
</g>
<g>
</g>
<g>
</g>
<g>
</g>
<g>
</g>
<g>
</g>
<g>
</g>
<g>
</g>
<g>
</g>
<g>
</g>
<g>
</g>
</svg>
