<?xml version="1.0" encoding="iso-8859-1"?>
<!-- Generator: Adobe Illustrator 16.0.0, SVG Export Plug-In . SVG Version: 6.00 Build 0)  -->
<!DOCTYPE svg PUBLIC "-//W3C//DTD SVG 1.1//EN" "http://www.w3.org/Graphics/SVG/1.1/DTD/svg11.dtd">
<svg version="1.1" id="Capa_1" xmlns="http://www.w3.org/2000/svg" xmlns:xlink="http://www.w3.org/1999/xlink" x="0px" y="0px"
	 width="181.569px" height="181.569px" viewBox="0 0 181.569 181.569" style="enable-background:new 0 0 181.569 181.569;"
	 xml:space="preserve">
<g>
	<path d="M164.522,83.824c-4.167-4.46-12.318-6.978-24.021-4.315c0,0-13.335-13.964-34.276-8.207c0,0-8.157,2.524-17.413,2.19
		c3.009-3.36,8.009-4.055,8.009-4.055c15.558-3.559,19.109-9.259,19.109-9.259c5.516-5.922-3.942-13.202-3.942-13.202
		c0.987-0.6,1.773-1.587,1.773-1.587c3.547-2.161-12.406-4.528-12.406-4.528c0.886-2.861-25.812-2.953-25.812-2.953
		c1.383-6.114-4.144-9.247-4.144-9.247c-11.815-4.924-14.576,7.273-14.576,7.273c-3.937-0.187-3.156,2.246-2.405,2.816
		c0.898,0.683,3.682,0.041,3.983,1.135c0.39,1.43-0.709,4.752,0.201,5.922c0.308,0.393,1.631,0.591,1.631,0.591
		c0.987,2.077,0.497,3.197,1.082,3.153c1.165-0.098,5.964-0.381,5.964-0.381c0.591,2.155,10.64,10.241,10.64,10.241
		c-0.65,2.349-8.145,2.471-13.146,2.29c-3.47-3.535-7.412-8.142-9.221-12.336c-4.646-10.719-16.013-27.91-40.436-23.4l-6.567-8.195
		l-0.207,6.162L4.033,19.22l2.4,10.252c0,0-4.664,1.641-5.745,25.729c0,0-3.009,14.774,3.558,16.42c0,0,5.668,2.167,8.322-4.303
		c3.015,0.618,6.951,1.253,11.904,1.72c0.349,3.257,1.218,7.173,3.381,10.309c0,0,1.029,7.182-2.258,9.646
		c0,0-3.688,6.773,2.258,11.694c0,0,2.258,3.085-4.108,3.085c0,0-11.284-3.085-11.077,5.746c0,0-5.544,7.188,4.102,12.105
		l9.233,5.745c0,0,4.108,1.855,13.547,1.442l0.201-1.862c0,0,7.188,2.057,3.694-4.912l-0.621-2.671c0,0,8.204,2.458,8.204-2.66
		c0,0,34.07,11.277,50.49,0.401c0,0,5.137-2.659,6.366,0.627c0,0,0.62,11.49,30.996,10.876c0,0,2.459-0.396,2.252,3.906
		c0,0-4.103,18.483,1.85,24.844c5.946,6.359,8.003,8.416,8.618,4.314l0.207-4.729c0,0,2.258-0.815,1.643-8.618
		c0,0-2.051-1.643-4.309-0.614c0,0-1.85-14.777,1.431-21.557c0,0,5.544-9.227-4.516-10.262c0,0-7.389,1.851-6.153-3.693
		c0,0,11.904-15.794,4.717-27.494c0,0,0.827-2.465,4.309,1.028c0,0,28.117,21.335,32.64,3.073
		C181.552,88.745,168.406,87.988,164.522,83.824z M14.3,64.505c2.169-1.714,7.069-6.18,6.75-11.476c0,0,3.281-2.657,3.281,9.646
		c0,0-0.124,1.297-0.095,3.203C20.276,65.498,16.948,64.995,14.3,64.505z M21.458,112.757c0,0,8.21,2.471,9.854,6.987
		C31.312,119.744,25.158,120.146,21.458,112.757z M74.998,70.144c-0.928-0.493-1.838-1.063-2.695-1.688h3.836L74.998,70.144z"/>
</g>
<g>
</g>
<g>
</g>
<g>
</g>
<g>
</g>
<g>
</g>
<g>
</g>
<g>
</g>
<g>
</g>
<g>
</g>
<g>
</g>
<g>
</g>
<g>
</g>
<g>
</g>
<g>
</g>
<g>
</g>
</svg>
